<svg width="21" height="17" viewBox="0 0 21 17" fill="none" xmlns="http://www.w3.org/2000/svg">
<path d="M18.9 0H2.1C0.945 0 0 0.945 0 2.1V14.7C0 15.855 0.945 16.8 2.1 16.8H18.9C20.055 16.8 21 15.855 21 14.7V2.1C21 0.945 20.055 0 18.9 0ZM18.48 4.4625L11.613 8.757C10.9305 9.1875 10.0695 9.1875 9.387 8.757L2.52 4.4625C2.41471 4.4034 2.32251 4.32354 2.24898 4.22778C2.17545 4.13201 2.12212 4.02232 2.0922 3.90534C2.06229 3.78836 2.05643 3.66653 2.07496 3.54722C2.0935 3.42791 2.13605 3.3136 2.20005 3.21122C2.26404 3.10883 2.34814 3.02049 2.44726 2.95154C2.54638 2.8826 2.65846 2.83449 2.77672 2.81011C2.89498 2.78574 3.01695 2.78561 3.13525 2.80975C3.25356 2.83388 3.36574 2.88176 3.465 2.9505L10.5 7.35L17.535 2.9505C17.6343 2.88176 17.7464 2.83388 17.8647 2.80975C17.9831 2.78561 18.105 2.78574 18.2233 2.81011C18.3415 2.83449 18.4536 2.8826 18.5527 2.95154C18.6519 3.02049 18.736 3.10883 18.8 3.21122C18.8639 3.3136 18.9065 3.42791 18.925 3.54722C18.9436 3.66653 18.9377 3.78836 18.9078 3.90534C18.8779 4.02232 18.8245 4.13201 18.751 4.22778C18.6775 4.32354 18.5853 4.4034 18.48 4.4625Z" fill="#41B198"/>
</svg>
