<svg width="40" height="24" viewBox="0 0 40 24" fill="none" xmlns="http://www.w3.org/2000/svg">
<path d="M39.7446 11.2672C39.3845 10.8092 30.8794 0 20 0C9.12057 0 0.615496 10.8 0.255443 11.2672C-0.0851476 11.7069 -0.0851476 12.2931 0.255443 12.7328C0.615496 13.1908 9.12057 24 20 24C30.8794 24 39.3845 13.2 39.7446 12.7328C40.0851 12.2931 40.0851 11.6977 39.7446 11.2672ZM20.0097 21.5084C12.001 21.5084 5.06271 14.3359 3.00944 11.9908C5.06271 9.6458 11.9815 2.47328 20.0097 2.47328C28.0185 2.47328 34.947 9.6458 37.01 11.9908C34.9568 14.345 28.0379 21.5084 20.0097 21.5084Z" fill="white"/>
<path d="M20.0097 4.55267C15.6501 4.55267 12.0983 7.89619 12.0983 12C12.0983 16.1038 15.6501 19.4473 20.0097 19.4473C24.3693 19.4473 27.9211 16.1038 27.9211 12C27.9211 7.88703 24.3693 4.55267 20.0097 4.55267ZM20.0097 16.9557C17.1001 16.9557 14.7354 14.7298 14.7354 11.9908C14.7354 9.25191 17.1001 7.02596 20.0097 7.02596C22.9193 7.02596 25.2839 9.25191 25.2839 11.9908C25.2839 14.7298 22.9193 16.9557 20.0097 16.9557Z" fill="white"/>
</svg>
