<svg width="24" height="22" viewBox="0 0 24 22" fill="none" xmlns="http://www.w3.org/2000/svg">
<path d="M6.25071 7.6626C6.08988 7.49748 5.99952 7.27352 5.99952 7.04C5.99952 6.80648 6.08988 6.58252 6.25071 6.4174C6.41155 6.25228 6.62969 6.15951 6.85714 6.15951C7.0846 6.15951 7.30274 6.25228 7.46357 6.4174L11.1429 10.1959V0.88C11.1429 0.646609 11.2332 0.422778 11.3939 0.257746C11.5547 0.092714 11.7727 0 12 0C12.2273 0 12.4453 0.092714 12.6061 0.257746C12.7668 0.422778 12.8571 0.646609 12.8571 0.88V10.1959L16.5364 6.4174C16.6973 6.25228 16.9154 6.15951 17.1429 6.15951C17.3703 6.15951 17.5885 6.25228 17.7493 6.4174C17.9101 6.58252 18.0005 6.80648 18.0005 7.04C18.0005 7.27352 17.9101 7.49748 17.7493 7.6626L12.6064 12.9426C12.5268 13.0244 12.4323 13.0893 12.3282 13.1336C12.2242 13.1779 12.1126 13.2007 12 13.2007C11.8874 13.2007 11.7758 13.1779 11.6718 13.1336C11.5677 13.0893 11.4732 13.0244 11.3936 12.9426L6.25071 7.6626ZM24 13.2V20.24C24 20.7068 23.8194 21.1544 23.4979 21.4845C23.1764 21.8146 22.7404 22 22.2857 22H1.71429C1.25963 22 0.823593 21.8146 0.502103 21.4845C0.180612 21.1544 0 20.7068 0 20.24V13.2C0 12.7332 0.180612 12.2856 0.502103 11.9555C0.823593 11.6254 1.25963 11.44 1.71429 11.44H7.32857C7.38487 11.44 7.44062 11.4513 7.49265 11.4734C7.54468 11.4955 7.59196 11.5279 7.63179 11.5687L10.1786 14.19C10.4175 14.4361 10.7013 14.6314 11.0139 14.7646C11.3265 14.8979 11.6616 14.9665 12 14.9665C12.3384 14.9665 12.6735 14.8979 12.9861 14.7646C13.2987 14.6314 13.5825 14.4361 13.8214 14.19L16.3714 11.572C16.4506 11.4891 16.5584 11.4417 16.6714 11.44H22.2857C22.7404 11.44 23.1764 11.6254 23.4979 11.9555C23.8194 12.2856 24 12.7332 24 13.2ZM19.7143 16.72C19.7143 16.4589 19.6389 16.2037 19.4976 15.9866C19.3563 15.7696 19.1555 15.6004 18.9206 15.5005C18.6857 15.4006 18.4271 15.3744 18.1777 15.4254C17.9283 15.4763 17.6992 15.602 17.5194 15.7866C17.3396 15.9712 17.2172 16.2064 17.1676 16.4625C17.118 16.7185 17.1434 16.9839 17.2407 17.2251C17.338 17.4663 17.5028 17.6725 17.7143 17.8175C17.9257 17.9626 18.1743 18.04 18.4286 18.04C18.7696 18.04 19.0966 17.9009 19.3377 17.6534C19.5788 17.4058 19.7143 17.0701 19.7143 16.72Z" fill="#3B409A"/>
</svg>
