<svg width="18" height="18" viewBox="0 0 18 18" fill="none" xmlns="http://www.w3.org/2000/svg">
<path fill-rule="evenodd" clip-rule="evenodd" d="M10.3284 17.8305H14.452C16.1702 17.8305 17.5938 16.4005 17.5938 14.6746V13.0474V10.5325V5.7987C17.5938 5.15761 17.0538 4.61523 16.4156 4.61523C15.7775 4.61523 15.2375 5.15761 15.2375 5.7987V7.37658H14.5011H14.0102H10.3775C7.72356 7.40384 7.22322 8.78007 7.23565 10.6742V14.6746C7.18651 16.4005 8.56109 17.8305 10.3284 17.8305ZM9.59201 10.4832C9.59201 10.0887 9.93564 9.74355 10.3284 9.74355H13.912H14.5011H15.1884V10.4832V11.0256V12.9981V14.6746C15.1884 15.0691 14.8447 15.4143 14.452 15.4143H10.3284C9.93564 15.4143 9.59201 15.0691 9.59201 14.6746V10.4832ZM12.3902 13.787C11.752 13.787 11.212 13.2446 11.212 12.6036C11.212 11.9132 11.752 11.3708 12.3902 11.4201C13.0284 11.4201 13.5684 11.9626 13.5684 12.6036C13.5684 13.2446 13.0284 13.787 12.3902 13.787Z" fill="#117DC1"/>
<path fill-rule="evenodd" clip-rule="evenodd" d="M7.63655 0.101074H3.51291C1.79473 0.101074 0.371094 1.53109 0.371094 3.25697V4.88423V7.39909V12.1329C0.371094 12.774 0.911094 13.3164 1.54928 13.3164C2.18746 13.3164 2.72746 12.774 2.72746 12.1329V10.555H3.46383H3.95473H7.58746C10.2414 10.5278 10.7417 9.15155 10.7293 7.2574V3.25697C10.7784 1.53109 9.40382 0.101074 7.63655 0.101074ZM8.37291 7.4484C8.37291 7.84289 8.02928 8.18807 7.63655 8.18807H4.05291H3.46383H2.77655V7.4484V6.90598V4.93355V3.25697C2.77655 2.86248 3.12018 2.51731 3.51291 2.51731H7.63655C8.02928 2.51731 8.37291 2.86248 8.37291 3.25697V7.4484ZM5.57474 4.14457C6.21292 4.14457 6.75292 4.68699 6.75292 5.32804C6.75292 6.01838 6.21292 6.5608 5.57474 6.51149C4.93656 6.51149 4.39656 5.96907 4.39656 5.32804C4.39656 4.68699 4.93656 4.14457 5.57474 4.14457Z" fill="#EC2327"/>
</svg>
