<svg width="20" height="21" viewBox="0 0 20 21" fill="none" xmlns="http://www.w3.org/2000/svg">
<path d="M12.5021 13.9823C15.6295 13.9823 18.1255 11.4677 18.1255 8.32206C18.1255 5.17643 15.6295 2.66187 12.5021 2.66187C9.37478 2.66187 6.87874 5.17643 6.87874 8.32206C6.87874 11.4677 9.37478 13.9823 12.5021 13.9823ZM0.371495 18.7687L5.62582 13.4871C5.87834 13.2347 6.24743 13.1085 6.62621 13.1085C5.62585 11.8463 5.00428 10.0891 5.00428 8.33177C5.00428 4.18614 8.38413 0.788086 12.5021 0.788086C16.6299 0.788086 20 4.18614 20 8.33177C20 12.4774 16.6202 15.8755 12.5021 15.8755C10.7539 15.8755 9.0057 15.2444 7.75281 14.1182C7.75281 14.4968 7.7528 14.8755 7.37402 15.1279L2.1197 20.4094C1.86718 20.6619 1.49809 20.7881 1.24557 20.7881C0.993046 20.7881 0.624015 20.6619 0.371495 20.4094C-0.123832 20.0211 -0.123832 19.2638 0.371495 18.7687Z" fill="#41B198"/>
</svg>
