<svg width="20" height="20" viewBox="0 0 20 20" fill="none" xmlns="http://www.w3.org/2000/svg">
<path d="M12.5021 13.1942C15.6295 13.1942 18.1255 10.6796 18.1255 7.53398C18.1255 4.38834 15.6295 1.87379 12.5021 1.87379C9.37478 1.87379 6.87874 4.38834 6.87874 7.53398C6.87874 10.6796 9.37478 13.1942 12.5021 13.1942ZM0.371495 17.9806L5.62582 12.699C5.87834 12.4466 6.24743 12.3204 6.62621 12.3204C5.62585 11.0582 5.00428 9.30097 5.00428 7.54369C5.00428 3.39806 8.38413 0 12.5021 0C16.6299 0 20 3.39806 20 7.54369C20 11.6893 16.6202 15.0874 12.5021 15.0874C10.7539 15.0874 9.0057 14.4563 7.75281 13.3301C7.75281 13.7087 7.7528 14.0874 7.37402 14.3398L2.1197 19.6214C1.86718 19.8738 1.49809 20 1.24557 20C0.993046 20 0.624015 19.8738 0.371495 19.6214C-0.123832 19.233 -0.123832 18.4757 0.371495 17.9806Z" fill="white"/>
</svg>
