<svg width="43" height="39" viewBox="0 0 43 39" fill="none" xmlns="http://www.w3.org/2000/svg">
<path d="M13.9402 21.5616C13.9402 17.6138 13.9402 13.666 13.9402 9.71824C13.9402 9.51471 14.1457 7.70394 13.82 7.617C13.3717 7.49734 13.5073 8.12607 13.5073 8.34738C13.5073 11.24 14.5884 14.1711 16.9468 16.1681C20.1385 18.8706 20.4185 10.4668 20.5547 9.20136C20.591 8.86359 21.0286 6.86364 20.7471 8.2912C20.1625 11.2563 20.1333 14.3861 20.3623 17.3816C20.892 24.3116 23.145 31.0423 24.7518 37.7985C24.9891 38.7962 24.2196 35.8159 23.9701 34.8208C22.028 27.0728 21.2055 19.262 20.3863 11.3588C20.0395 8.01259 19.5685 4.67298 19.1356 1.33573C19.1134 1.16506 18.9432 0.748083 18.9432 1.21213C18.9432 2.22076 19.32 3.33448 19.6647 4.26849C21.0996 8.15645 23.878 12.0411 26.7843 15.1118C27.1978 15.5487 28.476 16.8865 29.0813 15.9321C30.5797 13.5695 28.577 4.96377 28.8769 7.69565C29.1142 9.85798 31.0196 12.0803 32.136 13.8983C34.0055 16.9427 35.6887 20.0427 37.3674 23.1797C38.4717 25.2433 39.7168 27.1991 40.9512 29.1913C41.2911 29.7399 41.5141 30.3663 41.9494 30.8543C42.2009 31.1363 41.4361 30.8929 41.3842 30.8655C39.473 29.8611 36.6873 29.6046 34.5893 29.2587C29.4207 28.4065 24.1067 28.122 18.871 28.4834C14.1594 28.8085 9.03793 30.3319 4.31925 29.5621C3.2445 29.3868 1 28.7224 1 27.3597C1 26.9577 1.77147 26.6976 2.04628 26.5619C4.22206 25.4879 6.26377 24.2147 8.33601 22.9774C15.8256 18.5058 23.3816 14.0598 31.3543 10.37C31.8519 10.1397 36.4534 8.46205 36.4534 8.01028" stroke="#454990" stroke-linecap="round"/>
</svg>
