<svg width="58" height="60" viewBox="0 0 58 60" fill="none" xmlns="http://www.w3.org/2000/svg">
<path d="M26.857 49.932C28.2845 49.932 29.4416 48.7748 29.4416 47.3474C29.4416 45.92 28.2845 44.7628 26.857 44.7628C25.4296 44.7628 24.2725 45.92 24.2725 47.3474C24.2725 48.7748 25.4296 49.932 26.857 49.932Z" stroke="white" stroke-width="2" stroke-miterlimit="10" stroke-linecap="round" stroke-linejoin="round"/>
<path d="M32.4199 47.3475C32.4199 48.0922 31.8504 48.6617 31.5875 49.3188C31.3247 49.9759 31.2809 50.8082 30.799 51.2901C30.3171 51.772 29.4848 51.8158 28.8277 52.0786C28.2144 52.3415 27.6011 52.9109 26.8564 52.9109C26.1117 52.9109 25.5422 52.3415 24.8851 52.0786C24.228 51.8158 23.3957 51.772 22.9138 51.2901C22.4319 50.8082 22.3881 49.9759 22.1253 49.3188C21.8625 48.7055 21.293 48.0922 21.293 47.3475C21.293 46.6028 21.8625 46.0333 22.1253 45.3762C22.3881 44.7191 22.4319 43.8868 22.9138 43.4049C23.3957 42.923 24.228 42.8792 24.8851 42.6164C25.4984 42.3535 26.1117 41.7841 26.8564 41.7841C27.6011 41.7841 28.1706 42.3535 28.8277 42.6164C29.4848 42.8792 30.3171 42.923 30.799 43.4049C31.2809 43.8868 31.3247 44.7191 31.5875 45.3762C31.8504 46.0333 32.4199 46.6466 32.4199 47.3475Z" stroke="white" stroke-width="2" stroke-miterlimit="10" stroke-linecap="round" stroke-linejoin="round"/>
<path d="M29.0473 52.2538V59L26.9008 56.5906L24.7104 59V52.2538" stroke="white" stroke-width="2" stroke-miterlimit="10" stroke-linecap="round" stroke-linejoin="round"/>
<path d="M55.4189 25.3565L56.2512 31.0076L54.5865 29.1677L52.9219 31.0076L53.5352 25.0499" stroke="white" stroke-width="2" stroke-miterlimit="10" stroke-linecap="round" stroke-linejoin="round"/>
<path d="M51.3443 51.3338C53.546 51.3338 55.3307 49.5491 55.3307 47.3474C55.3307 45.1458 53.546 43.361 51.3443 43.361C49.1427 43.361 47.3579 45.1458 47.3579 47.3474C47.3579 49.5491 49.1427 51.3338 51.3443 51.3338Z" stroke="white" stroke-width="2" stroke-miterlimit="10" stroke-linecap="round" stroke-linejoin="round"/>
<path d="M20.0231 51.4214C20.0231 51.4214 7.80108 51.3338 6.48688 51.3338C4.29655 51.3338 2.50049 49.5378 2.50049 47.3474C2.50049 45.1571 4.29655 43.361 6.48688 43.361C7.8887 43.361 20.0231 43.361 20.0231 43.361" stroke="white" stroke-width="2" stroke-miterlimit="10" stroke-linecap="round" stroke-linejoin="round"/>
<path d="M33.6909 43.361H51.345" stroke="white" stroke-width="2" stroke-miterlimit="10" stroke-linecap="round" stroke-linejoin="round"/>
<path d="M51.345 51.3777H33.6909" stroke="white" stroke-width="2" stroke-miterlimit="10" stroke-linecap="round" stroke-linejoin="round"/>
<path d="M34.0415 22.2024L50.1623 15.1057" stroke="white" stroke-width="2" stroke-miterlimit="10" stroke-linecap="round" stroke-linejoin="round"/>
<path d="M50.162 10.7251L29.3101 1.52568C27.6892 0.824773 25.8493 0.824773 24.2285 1.52568L1.88708 11.426C0.704305 11.9517 0.704305 13.8353 1.88708 14.361L24.2285 24.2613C25.8493 24.9622 27.6892 24.9622 29.3101 24.2613L31.2814 23.3852" stroke="white" stroke-width="2" stroke-miterlimit="10" stroke-linecap="round" stroke-linejoin="round"/>
<path d="M9.90332 21.1073V26.4517C9.90332 28.204 10.8233 29.8248 12.3127 30.7886L22.7387 36.8777C25.2357 38.3671 28.3459 38.3671 30.8429 36.8777L41.4003 30.7447C42.8897 29.8248 43.8097 28.204 43.8097 26.4517L43.8535 21.0635" stroke="white" stroke-width="2" stroke-miterlimit="10" stroke-linecap="round" stroke-linejoin="round"/>
<path d="M26.7695 14.8867C28.8986 14.8867 30.6245 14.0629 30.6245 13.0468C30.6245 12.0307 28.8986 11.2069 26.7695 11.2069C24.6405 11.2069 22.9146 12.0307 22.9146 13.0468C22.9146 14.0629 24.6405 14.8867 26.7695 14.8867Z" stroke="white" stroke-width="2" stroke-miterlimit="10" stroke-linecap="round" stroke-linejoin="round"/>
<path d="M30.624 13.0468H52.3083C53.5787 13.0468 54.6301 14.0982 54.6301 15.3686V21.9834" stroke="white" stroke-width="2" stroke-miterlimit="10" stroke-linecap="round" stroke-linejoin="round"/>
<path d="M54.5862 25.7507C55.312 25.7507 55.9004 24.9662 55.9004 23.9985C55.9004 23.0307 55.312 22.2462 54.5862 22.2462C53.8604 22.2462 53.272 23.0307 53.272 23.9985C53.272 24.9662 53.8604 25.7507 54.5862 25.7507Z" stroke="white" stroke-width="2" stroke-miterlimit="10" stroke-linecap="round" stroke-linejoin="round"/>
</svg>
