<svg width="55" height="60" viewBox="0 0 55 60" fill="none" xmlns="http://www.w3.org/2000/svg">
<path d="M49.2112 59H5.05354C2.81116 59 1 57.1888 1 54.9465V9.02081C1 6.77843 2.81116 4.96729 5.05354 4.96729H49.2112C51.4536 4.96729 53.2647 6.77843 53.2647 9.02081V54.9465C53.3078 57.1888 51.4536 59 49.2112 59Z" stroke="white" stroke-width="2" stroke-miterlimit="10" stroke-linecap="round" stroke-linejoin="round"/>
<path d="M37.6113 55.9383H38.3013C40.0693 55.9383 41.4924 54.5153 41.4924 52.7903L41.5786 47.2275C41.6218 45.5457 42.9586 44.2089 44.6403 44.2089H50.7637C52.1437 44.2089 53.2649 43.0877 53.2649 41.7078V40.1554" stroke="white" stroke-width="2" stroke-miterlimit="10" stroke-linecap="round" stroke-linejoin="round"/>
<path d="M1 51.8847C1 54.1271 2.81116 55.9383 5.05354 55.9383H38.3874H39.6811C40.716 55.9383 41.751 55.507 42.484 54.774L53.2647 44.1658V46.1925" stroke="white" stroke-width="2" stroke-miterlimit="10" stroke-linecap="round" stroke-linejoin="round"/>
<path d="M15.1006 17.6022H53.3073" stroke="white" stroke-width="2" stroke-miterlimit="10" stroke-linecap="round" stroke-linejoin="round"/>
<path d="M1 17.6022H11.1338" stroke="white" stroke-width="2" stroke-miterlimit="10" stroke-linecap="round" stroke-linejoin="round"/>
<path d="M11.3927 28.9435H7.08043C6.6492 28.9435 6.3042 28.5985 6.3042 28.1673V23.855C6.3042 23.4238 6.6492 23.0788 7.08043 23.0788H11.3927C11.8239 23.0788 12.1689 23.4238 12.1689 23.855V28.1673C12.1689 28.5985 11.8239 28.9435 11.3927 28.9435Z" stroke="white" stroke-width="2" stroke-miterlimit="10" stroke-linecap="round" stroke-linejoin="round"/>
<path d="M23.1646 28.9435H18.8523C18.4211 28.9435 18.0762 28.5985 18.0762 28.1673V23.855C18.0762 23.4238 18.4211 23.0788 18.8523 23.0788H23.1646C23.5958 23.0788 23.9408 23.4238 23.9408 23.855V28.1673C23.9408 28.5985 23.5958 28.9435 23.1646 28.9435Z" stroke="white" stroke-width="2" stroke-miterlimit="10" stroke-linecap="round" stroke-linejoin="round"/>
<path d="M34.9376 28.9435H30.6254C30.1941 28.9435 29.8491 28.5985 29.8491 28.1673V23.855C29.8491 23.4238 30.1941 23.0788 30.6254 23.0788H34.9376C35.3688 23.0788 35.7138 23.4238 35.7138 23.855V28.1673C35.7138 28.5985 35.3688 28.9435 34.9376 28.9435Z" stroke="white" stroke-width="2" stroke-miterlimit="10" stroke-linecap="round" stroke-linejoin="round"/>
<path d="M46.7095 28.9435H42.3973C41.966 28.9435 41.6211 28.5985 41.6211 28.1673V23.855C41.6211 23.4238 41.966 23.0788 42.3973 23.0788H46.7095C47.1408 23.0788 47.4858 23.4238 47.4858 23.855V28.1673C47.4858 28.5985 47.1408 28.9435 46.7095 28.9435Z" stroke="white" stroke-width="2" stroke-miterlimit="10" stroke-linecap="round" stroke-linejoin="round"/>
<path d="M11.3927 39.7673H7.08043C6.6492 39.7673 6.3042 39.4223 6.3042 38.9911V34.6788C6.3042 34.2476 6.6492 33.9026 7.08043 33.9026H11.3927C11.8239 33.9026 12.1689 34.2476 12.1689 34.6788V38.9911C12.1689 39.4223 11.8239 39.7673 11.3927 39.7673Z" stroke="white" stroke-width="2" stroke-miterlimit="10" stroke-linecap="round" stroke-linejoin="round"/>
<path d="M23.1646 39.7673H18.8523C18.4211 39.7673 18.0762 39.4223 18.0762 38.9911V34.6788C18.0762 34.2476 18.4211 33.9026 18.8523 33.9026H23.1646C23.5958 33.9026 23.9408 34.2476 23.9408 34.6788V38.9911C23.9408 39.4223 23.5958 39.7673 23.1646 39.7673Z" stroke="white" stroke-width="2" stroke-miterlimit="10" stroke-linecap="round" stroke-linejoin="round"/>
<path d="M34.9376 39.7673H30.6254C30.1941 39.7673 29.8491 39.4223 29.8491 38.9911V34.6788C29.8491 34.2476 30.1941 33.9026 30.6254 33.9026H34.9376C35.3688 33.9026 35.7138 34.2476 35.7138 34.6788V38.9911C35.7138 39.4223 35.3688 39.7673 34.9376 39.7673Z" stroke="white" stroke-width="2" stroke-miterlimit="10" stroke-linecap="round" stroke-linejoin="round"/>
<path d="M46.7095 39.7673H42.3973C41.966 39.7673 41.6211 39.4223 41.6211 38.9911V34.6788C41.6211 34.2476 41.966 33.9026 42.3973 33.9026H46.7095C47.1408 33.9026 47.4858 34.2476 47.4858 34.6788V38.9911C47.4858 39.4223 47.1408 39.7673 46.7095 39.7673Z" stroke="white" stroke-width="2" stroke-miterlimit="10" stroke-linecap="round" stroke-linejoin="round"/>
<path d="M11.3927 50.6342H7.08043C6.6492 50.6342 6.3042 50.2892 6.3042 49.858V45.5457C6.3042 45.1145 6.6492 44.7695 7.08043 44.7695H11.3927C11.8239 44.7695 12.1689 45.1145 12.1689 45.5457V49.858C12.1689 50.2892 11.8239 50.6342 11.3927 50.6342Z" stroke="white" stroke-width="2" stroke-miterlimit="10" stroke-linecap="round" stroke-linejoin="round"/>
<path d="M23.1646 50.6342H18.8523C18.4211 50.6342 18.0762 50.2892 18.0762 49.858V45.5457C18.0762 45.1145 18.4211 44.7695 18.8523 44.7695H23.1646C23.5958 44.7695 23.9408 45.1145 23.9408 45.5457V49.858C23.9408 50.2892 23.5958 50.6342 23.1646 50.6342Z" stroke="white" stroke-width="2" stroke-miterlimit="10" stroke-linecap="round" stroke-linejoin="round"/>
<path d="M29.8921 47.055V45.5888C29.8921 45.1576 30.2371 44.8126 30.6683 44.8126H34.9806C35.4118 44.8126 35.7568 45.1576 35.7568 45.5888V49.9011C35.7568 50.3323 35.4118 50.6773 34.9806 50.6773H30.6683C30.2371 50.6773 29.8921 50.3323 29.8921 49.9011" stroke="white" stroke-width="2" stroke-miterlimit="10" stroke-linecap="round" stroke-linejoin="round"/>
<path d="M11.0474 10.6164C9.92626 10.6164 8.97754 9.71078 8.97754 8.54647V3.06988C8.97754 1.94869 9.88314 1 11.0474 1C12.1686 1 13.1174 1.90557 13.1174 3.06988V4.92417" stroke="white" stroke-width="2" stroke-miterlimit="10" stroke-linecap="round" stroke-linejoin="round"/>
<path d="M42.9156 10.6164C41.7944 10.6164 40.8457 9.71078 40.8457 8.54647V3.06988C40.8457 1.94869 41.7513 1 42.9156 1C44.0368 1 44.9855 1.90557 44.9855 3.06988V4.92417" stroke="white" stroke-width="2" stroke-miterlimit="10" stroke-linecap="round" stroke-linejoin="round"/>
</svg>
