<svg width="41" height="60" viewBox="0 0 41 60" fill="none" xmlns="http://www.w3.org/2000/svg">
<path d="M30.5069 17.0106V24.0236C30.5069 28.1696 27.5959 31.654 23.7145 32.492C23.097 32.6243 22.4795 32.7125 21.8179 32.7125H18.5982C17.9366 32.7125 17.319 32.6243 16.7016 32.492C12.8202 31.654 9.90918 28.1696 9.90918 24.0236V17.0106C9.90918 12.203 13.7906 15.3787 18.5982 15.3787H21.8179C26.6255 15.4228 30.5069 12.2471 30.5069 17.0106Z" stroke="white" stroke-width="2" stroke-miterlimit="10" stroke-linecap="round" stroke-linejoin="round"/>
<path d="M23.7144 32.492V37.1232C23.7144 39.0639 22.1707 40.6076 20.23 40.6076C18.2893 40.6076 16.7456 39.0198 16.7456 37.1232V32.492C17.3631 32.6243 17.9806 32.7125 18.6422 32.7125H21.8619C22.4794 32.7125 23.0969 32.6243 23.7144 32.492Z" stroke="white" stroke-width="2" stroke-miterlimit="10" stroke-linecap="round" stroke-linejoin="round"/>
<path d="M7.79248 15.6874V11.2327C7.79248 5.58706 12.3795 1 18.0252 1H22.3476C27.9932 1 32.5803 5.58706 32.5803 11.2327V15.6874" stroke="white" stroke-width="2" stroke-miterlimit="10" stroke-linecap="round" stroke-linejoin="round"/>
<path d="M16.0847 59H13.7471" stroke="white" stroke-width="2" stroke-miterlimit="10" stroke-linecap="round" stroke-linejoin="round"/>
<path d="M26.3615 35.3148C33.8155 36.3293 39.5494 42.6806 39.5494 50.4433V55.2509C39.5494 57.324 37.8733 59 35.8003 59H18.5547" stroke="white" stroke-width="2" stroke-miterlimit="10" stroke-linecap="round" stroke-linejoin="round"/>
<path d="M8.4981 59H4.74905C2.67605 59 1 57.324 1 55.251V50.4434C1 42.7688 6.64562 36.4175 14.0555 35.3589" stroke="white" stroke-width="2" stroke-miterlimit="10" stroke-linecap="round" stroke-linejoin="round"/>
<path d="M23.7148 33.1978H26.3171C28.3901 33.1978 30.0662 34.8738 30.0662 36.9468V42.6806" stroke="white" stroke-width="2" stroke-miterlimit="10" stroke-linecap="round" stroke-linejoin="round"/>
<path d="M10.4829 36.9468C10.4829 34.8738 12.159 33.1978 14.232 33.1978H16.6578" stroke="white" stroke-width="2" stroke-miterlimit="10" stroke-linecap="round" stroke-linejoin="round"/>
<path d="M10.4829 36.9468V46.2532" stroke="white" stroke-width="2" stroke-miterlimit="10" stroke-linecap="round" stroke-linejoin="round"/>
<path d="M27.376 53.3544V45.8563C27.376 44.3566 28.611 43.1658 30.0665 43.1658C31.5661 43.1658 32.757 44.4008 32.757 45.8563V53.3544" stroke="white" stroke-width="2" stroke-miterlimit="10" stroke-linecap="round" stroke-linejoin="round"/>
<path d="M10.3944 51.2814C11.7829 51.2814 12.9085 50.1558 12.9085 48.7673C12.9085 47.3788 11.7829 46.2532 10.3944 46.2532C9.00596 46.2532 7.88037 47.3788 7.88037 48.7673C7.88037 50.1558 9.00596 51.2814 10.3944 51.2814Z" stroke="white" stroke-width="2" stroke-miterlimit="10" stroke-linecap="round" stroke-linejoin="round"/>
<path d="M30.5073 18.3339H31.4335C32.5803 18.3339 33.5066 19.2601 33.5066 20.4069V20.5833C33.5066 21.7301 32.5803 22.6563 31.4335 22.6563H30.5073" stroke="white" stroke-width="2" stroke-miterlimit="10" stroke-linecap="round" stroke-linejoin="round"/>
<path d="M9.90988 18.3339H8.98363C7.83686 18.3339 6.91064 19.2601 6.91064 20.4069V20.5833C6.91064 21.7301 7.83686 22.6563 8.98363 22.6563H9.90988" stroke="white" stroke-width="2" stroke-miterlimit="10" stroke-linecap="round" stroke-linejoin="round"/>
</svg>
