<svg width="50" height="60" viewBox="0 0 50 60" fill="none" xmlns="http://www.w3.org/2000/svg">
<path d="M24.9998 37.1621C26.4276 37.1621 27.5851 35.9818 27.5851 34.5258C27.5851 33.0697 26.4276 31.8894 24.9998 31.8894C23.572 31.8894 22.4146 33.0697 22.4146 34.5258C22.4146 35.9818 23.572 37.1621 24.9998 37.1621Z" stroke="white" stroke-width="2" stroke-miterlimit="10" stroke-linecap="round" stroke-linejoin="round"/>
<path d="M25.0005 18.6197C33.6181 18.6197 40.5983 25.7379 40.5983 34.5258" stroke="white" stroke-width="2" stroke-miterlimit="10" stroke-linecap="round" stroke-linejoin="round"/>
<path d="M47.0622 44.2363C46.7175 45.0272 46.3297 45.8182 45.9419 46.5651" stroke="white" stroke-width="2" stroke-miterlimit="10" stroke-linecap="round" stroke-linejoin="round"/>
<path d="M42.0197 51.7939C37.6679 56.2318 31.6786 59 25 59C11.7289 59 1 48.0591 1 34.5258C1 20.9924 11.7289 10.0515 25 10.0515C38.2711 10.0515 49 20.9924 49 34.5258C49 37.0742 48.6122 39.5788 47.8797 41.8636" stroke="white" stroke-width="2" stroke-miterlimit="10" stroke-linecap="round" stroke-linejoin="round"/>
<path d="M29.9124 4.42727H19.6575C19.0112 4.42727 18.4941 3.89999 18.4941 3.2409V2.18636C18.4941 1.52726 19.0112 1 19.6575 1H29.9124C30.5588 1 31.0758 1.52726 31.0758 2.18636V3.2409C31.1189 3.85605 30.5588 4.42727 29.9124 4.42727Z" stroke="white" stroke-width="2" stroke-miterlimit="10" stroke-linecap="round" stroke-linejoin="round"/>
<path d="M22.0698 7.59089V4.42725" stroke="white" stroke-width="2" stroke-miterlimit="10" stroke-linecap="round" stroke-linejoin="round"/>
<path d="M27.5 4.42725V7.59089" stroke="white" stroke-width="2" stroke-miterlimit="10" stroke-linecap="round" stroke-linejoin="round"/>
<path d="M24.7847 15.7197V14.4894" stroke="white" stroke-width="2" stroke-miterlimit="10" stroke-linecap="round" stroke-linejoin="round"/>
<path d="M24.7847 54.5182V53.3318" stroke="white" stroke-width="2" stroke-miterlimit="10" stroke-linecap="round" stroke-linejoin="round"/>
<path d="M37.8418 21.2121L38.7036 20.3773" stroke="white" stroke-width="2" stroke-miterlimit="10" stroke-linecap="round" stroke-linejoin="round"/>
<path d="M10.9111 48.6743L11.7729 47.7955" stroke="white" stroke-width="2" stroke-miterlimit="10" stroke-linecap="round" stroke-linejoin="round"/>
<path d="M11.7729 21.2121L10.9111 20.3773" stroke="white" stroke-width="2" stroke-miterlimit="10" stroke-linecap="round" stroke-linejoin="round"/>
<path d="M38.7036 48.6743L37.8418 47.7955" stroke="white" stroke-width="2" stroke-miterlimit="10" stroke-linecap="round" stroke-linejoin="round"/>
<path d="M6.38517 34.5258H5.17871" stroke="white" stroke-width="2" stroke-miterlimit="10" stroke-linecap="round" stroke-linejoin="round"/>
<path d="M44.432 34.5258H43.2256" stroke="white" stroke-width="2" stroke-miterlimit="10" stroke-linecap="round" stroke-linejoin="round"/>
<path d="M26.7661 32.5924L33.057 26.1333" stroke="white" stroke-width="2" stroke-miterlimit="10" stroke-linecap="round" stroke-linejoin="round"/>
</svg>
