<svg width="21" height="13" viewBox="0 0 21 13" fill="none" xmlns="http://www.w3.org/2000/svg">
<path fill-rule="evenodd" clip-rule="evenodd" d="M18.6922 8.63444C18.6922 8.63444 20.3901 10.3051 20.8101 11.0781C20.8182 11.0893 20.8246 11.1016 20.829 11.1147C21.0001 11.4003 21.0421 11.6242 20.9581 11.7895C20.8164 12.0625 20.3365 12.1995 20.1738 12.211H17.1729C16.9639 12.211 16.5292 12.1566 16 11.7926C15.5958 11.5112 15.1936 11.0478 14.8041 10.5948C14.2224 9.92218 13.7194 9.33846 13.2102 9.33846C13.1458 9.33833 13.082 9.34894 13.0212 9.36985C12.6358 9.49119 12.1465 10.0383 12.1465 11.4955C12.1465 11.9516 11.7853 12.211 11.5323 12.211H10.1578C9.6895 12.211 7.2514 12.0478 5.08945 9.77678C2.4403 6.99626 0.0609946 1.41849 0.0378946 1.36932C-0.110156 1.00842 0.200645 0.811753 0.536645 0.811753H3.56695C3.9733 0.811753 4.1056 1.05654 4.198 1.27622C4.3051 1.52833 4.702 2.53676 5.353 3.66968C6.4072 5.5129 7.05505 6.26295 7.5727 6.26295C7.66996 6.26323 7.76557 6.23798 7.8499 6.18972C8.5261 5.8194 8.4001 3.41339 8.3686 2.91754C8.3686 2.8213 8.36755 1.8432 8.02105 1.37037C7.77325 1.03143 7.35115 0.899624 7.096 0.851504C7.16425 0.753171 7.30915 0.602534 7.495 0.513616C7.95805 0.283475 8.7949 0.25 9.62545 0.25H10.0864C10.9873 0.262553 11.2204 0.320088 11.548 0.40273C12.2074 0.559644 12.22 0.985404 12.1623 2.43529C12.1455 2.84954 12.1276 3.3161 12.1276 3.8653C12.1276 3.98246 12.1224 4.11322 12.1224 4.24608C12.1024 4.98985 12.0762 5.82777 12.6033 6.17194C12.6716 6.21437 12.7506 6.23684 12.8311 6.23679C13.0138 6.23679 13.5609 6.2368 15.0445 3.70002C15.6955 2.57965 16.1995 1.25843 16.2342 1.15906C16.2636 1.10361 16.3518 0.947745 16.4589 0.884979C16.535 0.844595 16.6204 0.824421 16.7067 0.826398H20.2714C20.6599 0.826398 20.9235 0.884979 20.9749 1.03143C21.061 1.2689 20.9581 1.99384 19.3306 4.18645C19.0566 4.55154 18.8161 4.86746 18.6051 5.14363C17.1298 7.07263 17.1298 7.16991 18.6922 8.63444Z" fill="#3B409A"/>
</svg>
