<svg width="45" height="58" viewBox="0 0 45 58" fill="none" xmlns="http://www.w3.org/2000/svg">
<path d="M40.3529 58H18.3196C17.9522 58 17.6543 57.7012 17.6543 57.3325V33.9571C17.6543 33.5884 17.9522 33.2896 18.3196 33.2896C18.687 33.2896 18.9848 33.5884 18.9848 33.9571V56.6749H39.6876V43.2236C39.6876 42.8549 39.9855 42.5559 40.3529 42.5559C40.7203 42.5559 41.0182 42.8549 41.0182 43.2236V57.3425C41.0082 57.7012 40.7103 58 40.3529 58Z" fill="#41B198"/>
<path d="M40.3528 41.9779C39.9854 41.9779 39.6875 41.6789 39.6875 41.3102V40.3438C39.6875 39.9751 39.9854 39.6763 40.3528 39.6763C40.7202 39.6763 41.0181 39.9751 41.0181 40.3438V41.3102C41.0081 41.6889 40.7102 41.9779 40.3528 41.9779Z" fill="#41B198"/>
<path d="M40.3528 38.0424C39.9854 38.0424 39.6875 37.7434 39.6875 37.3747V33.9571C39.6875 33.5884 39.9854 33.2896 40.3528 33.2896C40.7202 33.2896 41.0181 33.5884 41.0181 33.9571V37.3747C41.0081 37.7434 40.7102 38.0424 40.3528 38.0424Z" fill="#41B198"/>
<path d="M41.9415 32.0839H16.7307C15.3208 32.0839 14.1689 30.928 14.1689 29.5131V24.1825C14.1689 22.7676 15.3208 21.6118 16.7307 21.6118H41.9415C43.3514 21.6118 44.5032 22.7676 44.5032 24.1825V29.5131C44.5032 30.928 43.3514 32.0839 41.9415 32.0839ZM16.7307 22.937C16.0456 22.937 15.4896 23.495 15.4896 24.1825V29.5131C15.4896 30.2007 16.0456 30.7586 16.7307 30.7586H41.9415C42.6266 30.7586 43.1826 30.2007 43.1826 29.5131V24.1825C43.1826 23.495 42.6266 22.937 41.9415 22.937H16.7307Z" fill="#41B198"/>
<path d="M31.1386 28.8057H27.5342C26.4618 28.8057 25.5781 27.9289 25.5781 26.8429C25.5781 25.7568 26.4519 24.8799 27.5342 24.8799H31.1386C32.211 24.8799 33.0947 25.7568 33.0947 26.8429C33.0947 27.9289 32.211 28.8057 31.1386 28.8057ZM27.5342 26.2151C27.1867 26.2151 26.9087 26.4941 26.9087 26.8429C26.9087 27.1916 27.1867 27.4706 27.5342 27.4706H31.1386C31.4861 27.4706 31.7641 27.1916 31.7641 26.8429C31.7641 26.4941 31.4861 26.2151 31.1386 26.2151H27.5342Z" fill="#41B198"/>
<path d="M18.3201 50.9258H11.7767C7.65595 50.9258 4.2998 47.5579 4.2998 43.4229V31.4264C4.2998 31.0578 4.5977 30.7588 4.96509 30.7588C5.33247 30.7588 5.63035 31.0578 5.63035 31.4264V43.4229C5.63035 46.8306 8.39072 49.6006 11.7866 49.6006H18.33C18.6974 49.6006 18.9953 49.8996 18.9953 50.2682C18.9854 50.6269 18.6875 50.9258 18.3201 50.9258Z" fill="#41B198"/>
<path d="M39.9762 17.666H18.6975C17.2875 17.666 16.1357 16.5103 16.1357 15.0954V2.57065C16.1357 1.15577 17.2875 0 18.6975 0H39.9762C41.3862 0 42.538 1.15577 42.538 2.57065V15.0954C42.538 16.5103 41.3862 17.666 39.9762 17.666ZM18.6975 1.31531C18.0124 1.31531 17.4563 1.87329 17.4563 2.5608V15.0854C17.4563 15.7729 18.0124 16.3309 18.6975 16.3309H39.9762C40.6613 16.3309 41.2174 15.7729 41.2174 15.0854V2.5608C41.2174 1.87329 40.6613 1.31531 39.9762 1.31531H18.6975Z" fill="#41B198"/>
<path d="M44.335 58.0002H14.3284C13.961 58.0002 13.6631 57.7013 13.6631 57.3327C13.6631 56.964 13.961 56.665 14.3284 56.665H44.335C44.7024 56.665 45.0002 56.964 45.0002 57.3327C45.0002 57.7013 44.7024 58.0002 44.335 58.0002Z" fill="#41B198"/>
<path d="M7.33793 29.2538H2.30372C1.32071 29.2538 0.526367 28.4568 0.526367 27.4703V25.9856C0.526367 24.9992 1.32071 24.2021 2.30372 24.2021H7.33793C8.32094 24.2021 9.11529 24.9992 9.11529 25.9856V27.4703C9.12521 28.4568 8.32094 29.2538 7.33793 29.2538ZM2.30372 25.5173C2.05549 25.5173 1.84698 25.7267 1.84698 25.9758V27.4604C1.84698 27.7095 2.05549 27.9187 2.30372 27.9187H7.33793C7.58617 27.9187 7.79467 27.7095 7.79467 27.4604V25.9758C7.79467 25.7267 7.58617 25.5173 7.33793 25.5173H2.30372Z" fill="#41B198"/>
<path d="M14.8249 27.5104H8.46019C8.0928 27.5104 7.79492 27.2116 7.79492 26.8429C7.79492 26.4743 8.0928 26.1753 8.46019 26.1753H14.8249C15.1923 26.1753 15.4902 26.4743 15.4902 26.8429C15.4902 27.2116 15.1923 27.5104 14.8249 27.5104Z" fill="#41B198"/>
<path d="M2.13481 23.2359C2.0951 23.2359 2.04544 23.2359 2.00573 23.226C0.843988 22.9868 0 21.9505 0 20.7548V20.2865C0 18.9015 1.12202 17.7656 2.51214 17.7656H7.14916C8.52935 17.7656 9.66129 18.8916 9.66129 20.2865V20.7548C9.66129 21.9106 8.87687 22.917 7.76478 23.196C7.40732 23.2857 7.04986 23.0665 6.9605 22.7178C6.87113 22.3591 7.08958 22.0003 7.43711 21.9107C7.96336 21.7811 8.33076 21.3028 8.33076 20.7548V20.2865C8.33076 19.6289 7.79456 19.0909 7.13922 19.0909H2.5022C1.84686 19.0909 1.31067 19.6289 1.31067 20.2865V20.7548C1.31067 21.3227 1.70785 21.811 2.2639 21.9206C2.62136 21.9904 2.84972 22.3391 2.78022 22.6978C2.72064 23.0167 2.44262 23.2359 2.13481 23.2359Z" fill="#41B198"/>
<path d="M17.5452 26.1058C17.1778 26.1058 16.8799 25.8068 16.8799 25.4381V25.0695C16.8799 24.7008 17.1778 24.4019 17.5452 24.4019C17.9125 24.4019 18.2104 24.7008 18.2104 25.0695V25.4381C18.2005 25.8068 17.9026 26.1058 17.5452 26.1058Z" fill="#41B198"/>
<path d="M20.3352 26.1058C19.9678 26.1058 19.6699 25.8068 19.6699 25.4381V25.0695C19.6699 24.7008 19.9678 24.4019 20.3352 24.4019C20.7026 24.4019 21.0005 24.7008 21.0005 25.0695V25.4381C21.0005 25.8068 20.7026 26.1058 20.3352 26.1058Z" fill="#41B198"/>
<path d="M23.135 26.1058C22.7676 26.1058 22.4697 25.8068 22.4697 25.4381V25.0695C22.4697 24.7008 22.7676 24.4019 23.135 24.4019C23.5024 24.4019 23.8003 24.7008 23.8003 25.0695V25.4381C23.7903 25.8068 23.4925 26.1058 23.135 26.1058Z" fill="#41B198"/>
<path d="M17.5452 29.2741C17.1778 29.2741 16.8799 28.9751 16.8799 28.6065V28.2378C16.8799 27.8692 17.1778 27.5703 17.5452 27.5703C17.9125 27.5703 18.2104 27.8692 18.2104 28.2378V28.6065C18.2005 28.9851 17.9026 29.2741 17.5452 29.2741Z" fill="#41B198"/>
<path d="M20.3352 29.2741C19.9678 29.2741 19.6699 28.9751 19.6699 28.6065V28.2378C19.6699 27.8692 19.9678 27.5703 20.3352 27.5703C20.7026 27.5703 21.0005 27.8692 21.0005 28.2378V28.6065C21.0005 28.9851 20.7026 29.2741 20.3352 29.2741Z" fill="#41B198"/>
<path d="M23.135 29.2741C22.7676 29.2741 22.4697 28.9751 22.4697 28.6065V28.2378C22.4697 27.8692 22.7676 27.5703 23.135 27.5703C23.5024 27.5703 23.8003 27.8692 23.8003 28.2378V28.6065C23.7903 28.9851 23.4925 29.2741 23.135 29.2741Z" fill="#41B198"/>
<path d="M35.5373 26.1058C35.17 26.1058 34.8721 25.8068 34.8721 25.4381V25.0695C34.8721 24.7008 35.17 24.4019 35.5373 24.4019C35.9047 24.4019 36.2026 24.7008 36.2026 25.0695V25.4381C36.2026 25.8068 35.9047 26.1058 35.5373 26.1058Z" fill="#41B198"/>
<path d="M38.3274 26.1058C37.96 26.1058 37.6621 25.8068 37.6621 25.4381V25.0695C37.6621 24.7008 37.96 24.4019 38.3274 24.4019C38.6948 24.4019 38.9926 24.7008 38.9926 25.0695V25.4381C38.9926 25.8068 38.6948 26.1058 38.3274 26.1058Z" fill="#41B198"/>
<path d="M41.1272 26.1058C40.7598 26.1058 40.4619 25.8068 40.4619 25.4381V25.0695C40.4619 24.7008 40.7598 24.4019 41.1272 24.4019C41.4946 24.4019 41.7924 24.7008 41.7924 25.0695V25.4381C41.7924 25.8068 41.4946 26.1058 41.1272 26.1058Z" fill="#41B198"/>
<path d="M35.5373 29.2741C35.17 29.2741 34.8721 28.9751 34.8721 28.6065V28.2378C34.8721 27.8692 35.17 27.5703 35.5373 27.5703C35.9047 27.5703 36.2026 27.8692 36.2026 28.2378V28.6065C36.2026 28.9851 35.9047 29.2741 35.5373 29.2741Z" fill="#41B198"/>
<path d="M38.3274 29.2741C37.96 29.2741 37.6621 28.9751 37.6621 28.6065V28.2378C37.6621 27.8692 37.96 27.5703 38.3274 27.5703C38.6948 27.5703 38.9926 27.8692 38.9926 28.2378V28.6065C38.9926 28.9851 38.6948 29.2741 38.3274 29.2741Z" fill="#41B198"/>
<path d="M41.1272 29.2741C40.7598 29.2741 40.4619 28.9751 40.4619 28.6065V28.2378C40.4619 27.8692 40.7598 27.5703 41.1272 27.5703C41.4946 27.5703 41.7924 27.8692 41.7924 28.2378V28.6065C41.7924 28.9851 41.4946 29.2741 41.1272 29.2741Z" fill="#41B198"/>
<path d="M27.5735 22.9371C27.2061 22.9371 26.9082 22.6381 26.9082 22.2695V19.111C26.9082 18.7423 27.2061 18.4434 27.5735 18.4434C27.9409 18.4434 28.2387 18.7423 28.2387 19.111V22.2695C28.2387 22.6381 27.9409 22.9371 27.5735 22.9371Z" fill="#41B198"/>
<path d="M31.0891 22.9371C30.7217 22.9371 30.4238 22.6381 30.4238 22.2695V19.111C30.4238 18.7423 30.7217 18.4434 31.0891 18.4434C31.4565 18.4434 31.7544 18.7423 31.7544 19.111V22.2695C31.7544 22.6381 31.4565 22.9371 31.0891 22.9371Z" fill="#41B198"/>
<path d="M29.381 13.5013C25.6873 13.5013 22.1425 11.9668 19.6601 9.30641C19.541 9.17688 19.4715 8.99754 19.4814 8.81819C19.4913 8.63884 19.5708 8.46948 19.6999 8.34991L24.6943 3.89607C24.9624 3.65693 25.3695 3.6769 25.6178 3.93596C26.5809 4.97221 27.9512 5.55996 29.3711 5.55996C30.791 5.55996 32.1513 4.97211 33.1045 3.95579C33.3528 3.69672 33.7599 3.67688 34.028 3.91601L39.0224 8.37983C39.1515 8.4994 39.231 8.66876 39.2409 8.84811C39.2508 9.02746 39.1813 9.19684 39.0622 9.33633C36.5898 11.9867 33.0549 13.5013 29.381 13.5013ZM21.1098 8.888C23.3142 10.9904 26.293 12.176 29.381 12.176C32.4591 12.176 35.428 10.9904 37.6323 8.90795L33.6209 5.32084C32.4591 6.3272 30.9499 6.89522 29.3909 6.89522C27.8221 6.89522 26.3029 6.31733 25.1312 5.30101L21.1098 8.888Z" fill="#41B198"/>
<path d="M20.1173 9.54538C19.9485 9.54538 19.7797 9.48565 19.6507 9.35612C19.3925 9.09706 19.3925 8.67863 19.6507 8.41957C19.9088 8.16051 20.3358 8.15053 20.6039 8.4096C20.862 8.66866 20.872 9.07711 20.6138 9.33617L20.584 9.36609C20.4549 9.4757 20.2861 9.54538 20.1173 9.54538Z" fill="#41B198"/>
<path d="M29.3711 11.5381C27.6831 11.5381 26.4121 10.7211 26.4121 9.63508C26.4121 8.54901 27.6831 7.73193 29.3711 7.73193C31.0591 7.73193 32.33 8.54901 32.33 9.63508C32.33 10.7211 31.0591 11.5381 29.3711 11.5381ZM29.3711 9.05709C28.3086 9.05709 27.7327 9.49558 27.7327 9.63508C27.7327 9.77457 28.3185 10.2129 29.3711 10.2129C30.4335 10.2129 31.0094 9.77457 31.0094 9.63508C31.0094 9.48562 30.4236 9.05709 29.3711 9.05709Z" fill="#41B198"/>
</svg>
