<svg width="31" height="58" viewBox="0 0 31 58" fill="none" xmlns="http://www.w3.org/2000/svg">
<path d="M16.6719 24.6907H14.3375C13.8317 24.6907 13.3355 24.631 12.8492 24.5214C9.72682 23.8239 7.46045 20.9344 7.46045 17.6463V12.4551C7.46045 11.379 7.69392 10.6815 8.20945 10.263C8.98761 9.62529 10.1062 9.89437 11.3999 10.1933C12.285 10.4025 13.2967 10.6316 14.3472 10.6316H16.6816C17.7322 10.6316 18.7341 10.4025 19.629 10.1933C20.9227 9.89437 22.0412 9.63525 22.8194 10.263C23.3252 10.6815 23.5684 11.379 23.5684 12.4551V17.6463C23.5684 20.9244 21.302 23.8239 18.1796 24.5214C17.6738 24.641 17.1777 24.6907 16.6719 24.6907ZM9.44474 11.1199C9.23075 11.1199 9.06539 11.1597 8.95839 11.2394C8.77358 11.3889 8.66659 11.8274 8.66659 12.4651V17.6563C8.66659 20.3565 10.5342 22.7378 13.1118 23.3157C13.5107 23.4054 13.9192 23.4552 14.3375 23.4552H16.6719C17.0902 23.4552 17.4987 23.4054 17.8975 23.3157C20.4752 22.7378 22.3428 20.3565 22.3428 17.6563V12.4651C22.3428 11.8274 22.2358 11.3988 22.051 11.2394C21.73 10.9804 20.8351 11.1896 19.8915 11.4089C18.9383 11.6281 17.8683 11.8771 16.6816 11.8771H14.3472C13.1605 11.8771 12.0808 11.6281 11.1372 11.4089C10.4855 11.2594 9.88246 11.1199 9.44474 11.1199Z" fill="#41B198"/>
<path d="M24.4636 12.1061C24.1329 12.1061 23.8605 11.8271 23.8605 11.4883V8.2003C23.8605 4.36418 20.816 1.24549 17.0711 1.24549H13.9487C10.2038 1.24549 7.15927 4.36418 7.15927 8.2003V11.4883C7.15927 11.8271 6.88691 12.1061 6.5562 12.1061C6.22548 12.1061 5.95312 11.8271 5.95312 11.4883V8.2003C5.95312 3.67667 9.54238 0 13.9584 0H17.0808C21.4969 0 25.0862 3.67667 25.0862 8.2003V11.4883C25.0667 11.8271 24.7943 12.1061 24.4636 12.1061Z" fill="#41B198"/>
<path d="M27.9946 31.0974C27.7514 31.0974 27.518 30.9479 27.4304 30.6988C26.1075 27.1417 23.1214 24.6109 19.6294 24.1027C19.2987 24.0529 19.0652 23.7441 19.1138 23.4053C19.1625 23.0665 19.464 22.8274 19.7947 22.8772C23.7245 23.4451 27.0803 26.2749 28.5491 30.2605C28.6658 30.5793 28.5102 30.938 28.1989 31.0575C28.1405 31.0874 28.0724 31.0974 27.9946 31.0974Z" fill="#41B198"/>
<path d="M3.12241 31.0972C3.05432 31.0972 2.97653 31.0872 2.90845 31.0573C2.59718 30.9378 2.44156 30.5791 2.55829 30.2603C4.01734 26.3245 7.32448 23.5047 11.2056 22.8969C11.5363 22.8471 11.8476 23.0763 11.8962 23.4151C11.9448 23.7539 11.7211 24.0727 11.3904 24.1225C7.94701 24.6605 4.99975 27.1814 3.69633 30.6986C3.59906 30.9477 3.36559 31.0972 3.12241 31.0972Z" fill="#41B198"/>
<path d="M23.6272 17.2576H22.9463C22.6156 17.2576 22.3433 16.9786 22.3433 16.6399C22.3433 16.3011 22.6156 16.0221 22.9463 16.0221H23.6272C24.1233 16.0221 24.5221 15.6135 24.5221 15.1054V14.9759C24.5221 14.4677 24.1233 14.0592 23.6272 14.0592H22.9463C22.6156 14.0592 22.3433 13.7803 22.3433 13.4415C22.3433 13.1027 22.6156 12.8237 22.9463 12.8237H23.6272C24.7848 12.8237 25.7282 13.7901 25.7282 14.9759V15.1054C25.7282 16.2911 24.7848 17.2576 23.6272 17.2576Z" fill="#41B198"/>
<path d="M8.06365 17.2576H7.38275C6.22523 17.2576 5.28174 16.2911 5.28174 15.1054V14.9759C5.28174 13.7901 6.22523 12.8237 7.38275 12.8237H8.06365C8.39437 12.8237 8.66672 13.1027 8.66672 13.4415C8.66672 13.7803 8.39437 14.0592 8.06365 14.0592H7.38275C6.88667 14.0592 6.48788 14.4677 6.48788 14.9759V15.1054C6.48788 15.6135 6.88667 16.0221 7.38275 16.0221H8.06365C8.39437 16.0221 8.66672 16.3011 8.66672 16.6399C8.66672 16.9786 8.39437 17.2576 8.06365 17.2576Z" fill="#41B198"/>
<path d="M15.505 35.2325C15.3883 35.2325 15.2715 35.2026 15.1645 35.1229C14.8922 34.9336 14.8144 34.545 14.9992 34.256C16.429 32.1038 18.7538 30.6092 21.2148 30.2605C21.5455 30.2107 21.8567 30.4497 21.8956 30.7885C21.9442 31.1272 21.7108 31.4462 21.3801 31.486C19.2499 31.7849 17.2364 33.0802 16.001 34.9534C15.8843 35.1428 15.6995 35.2325 15.505 35.2325Z" fill="#41B198"/>
<path d="M26.7588 33.0005C26.6227 33.0005 26.4963 32.9606 26.3795 32.871C25.6403 32.2731 24.8232 31.8546 23.938 31.6255C23.617 31.5458 23.4128 31.207 23.5003 30.8682C23.5781 30.5394 23.9089 30.3301 24.2396 30.4197C25.2998 30.6888 26.2725 31.1871 27.1479 31.8945C27.4106 32.1038 27.4592 32.5023 27.2452 32.7713C27.1187 32.9208 26.9437 33.0005 26.7588 33.0005Z" fill="#41B198"/>
<path d="M29.006 40.3338C28.9768 40.3338 28.9476 40.3338 28.9087 40.3238C28.578 40.274 28.3542 39.9552 28.4029 39.6164C28.6168 38.2115 28.5779 36.936 28.2861 35.83C28.1986 35.5012 28.3931 35.1625 28.7141 35.0728C29.0351 34.9831 29.3658 35.1824 29.4534 35.5113C29.7841 36.7866 29.8328 38.2413 29.5993 39.8156C29.5604 40.1145 29.2978 40.3338 29.006 40.3338Z" fill="#41B198"/>
<path d="M15.5051 57.9998C15.3008 57.9998 15.1062 57.9002 14.9895 57.7108C14.8144 57.4219 14.8923 57.0333 15.1743 56.854C18.5399 54.6619 21.3802 52.161 23.6174 49.4109C23.8314 49.1519 24.2107 49.1121 24.4734 49.3313C24.736 49.5505 24.7652 49.9391 24.5512 50.2081C22.2264 53.0578 19.2986 55.6484 15.826 57.9002C15.7288 57.97 15.6121 57.9998 15.5051 57.9998Z" fill="#41B198"/>
<path d="M28.0722 48.9227H25.9128C24.444 48.9227 23.2476 47.6971 23.2476 46.1926C23.2476 44.688 24.444 43.4625 25.9128 43.4625H26.2726C26.6034 43.4625 26.8758 43.1835 26.8758 42.8447C26.8758 41.8184 27.6928 40.9814 28.6947 40.9814H29.0449C30.1246 40.9814 31 41.8782 31 42.9842V45.9135C31 47.5775 29.6869 48.9227 28.0722 48.9227ZM25.9225 44.7079C25.1249 44.7079 24.4732 45.3755 24.4732 46.1926C24.4732 47.0096 25.1249 47.6772 25.9225 47.6772H28.0819C29.0254 47.6772 29.7939 46.89 29.7939 45.9235V42.9941C29.7939 42.5756 29.4632 42.2369 29.0546 42.2369H28.7044C28.3737 42.2369 28.1013 42.5159 28.1013 42.8547C28.1013 43.881 27.2843 44.7179 26.2824 44.7179H25.9225V44.7079Z" fill="#41B198"/>
<path d="M2.00356 40.334C1.71175 40.334 1.44908 40.1148 1.41017 39.8059C0.943271 36.7171 1.58531 34.1165 3.22917 32.4824C4.92168 30.7886 7.14911 29.9914 9.49332 30.2306C12.0807 30.4996 14.5222 32.0042 16.0104 34.266C16.1952 34.545 16.1272 34.9336 15.8451 35.1329C15.5727 35.3222 15.1934 35.2524 14.9988 34.9634C13.7051 33.0105 11.5944 31.6953 9.35718 31.4661C7.37287 31.2568 5.49555 31.9344 4.06568 33.3692C2.71363 34.7243 2.18836 36.9363 2.59689 39.6166C2.64553 39.9554 2.42179 40.2742 2.09107 40.324C2.06189 40.334 2.03274 40.334 2.00356 40.334Z" fill="#41B198"/>
<path d="M15.5049 57.9998C15.3979 57.9998 15.2812 57.97 15.1839 57.9002C11.7211 55.6384 8.78348 53.0578 6.45872 50.2081C6.24473 49.949 6.28365 49.5505 6.53655 49.3313C6.78946 49.1121 7.17854 49.1519 7.39254 49.4109C9.62975 52.161 12.47 54.6619 15.8356 56.854C16.1177 57.0333 16.2052 57.4219 16.0204 57.7108C15.9037 57.9002 15.6994 57.9998 15.5049 57.9998Z" fill="#41B198"/>
<path d="M5.08721 48.9229H2.92778C1.3131 48.9229 0 47.5778 0 45.9238V42.9943C0 41.8883 0.875382 40.9917 1.95508 40.9917H2.3053C3.30718 40.9917 4.12425 41.8287 4.12425 42.8549C4.12425 43.1937 4.3966 43.4727 4.72732 43.4727H5.08721C6.55599 43.4727 7.7524 44.6983 7.7524 46.2028C7.7524 47.6974 6.55599 48.9229 5.08721 48.9229ZM1.96482 42.2272C1.55628 42.2272 1.22555 42.566 1.22555 42.9845V45.9138C1.22555 46.8803 1.994 47.6675 2.93752 47.6675H5.09695C5.89456 47.6675 6.54626 46.9999 6.54626 46.1829C6.54626 45.3658 5.89456 44.6983 5.09695 44.6983H4.73705C3.73517 44.6983 2.91811 43.8613 2.91811 42.835C2.91811 42.4962 2.64575 42.2172 2.31503 42.2172H1.96482V42.2272Z" fill="#41B198"/>
</svg>
