<svg width="47" height="58" viewBox="0 0 47 58" fill="none" xmlns="http://www.w3.org/2000/svg">
<path d="M12.2046 53.7147C11.8517 53.7147 11.5674 53.4258 11.5674 53.067V50.7249C11.5674 50.3661 11.8517 50.0771 12.2046 50.0771C12.5575 50.0771 12.8418 50.3661 12.8418 50.7249V53.067C12.8418 53.4258 12.5575 53.7147 12.2046 53.7147Z" fill="#41B198"/>
<path d="M31.3791 58H12.1948C11.8419 58 11.5576 57.711 11.5576 57.3522V55.6679C11.5576 55.3092 11.8419 55.0201 12.1948 55.0201C12.5477 55.0201 12.832 55.3092 12.832 55.6679V56.7043H30.7419V44.8446C30.7419 44.4858 31.0262 44.1968 31.3791 44.1968H36.7707C38.594 44.1968 40.0742 42.6919 40.0742 40.8382V35.6557C40.0742 33.6823 41.3878 31.9382 43.27 31.42C43.9072 31.2406 45.6129 30.7722 45.7109 30.1642C45.9266 28.7989 44.3973 26.1877 43.3778 24.4636C42.4466 22.879 42.0348 22.1614 42.0937 21.6033C42.0937 21.4837 42.0838 21.1847 42.074 21.0153C41.5741 10.3614 32.9573 1.70071 22.4682 1.30207C16.861 1.09277 11.5576 3.14588 7.52862 7.09251C3.49963 11.0391 1.27436 16.3511 1.27436 22.0319C1.27436 29.8952 5.56805 36.9812 12.4693 40.5491C12.685 40.6587 12.8222 40.8879 12.8222 41.1271V45.8611C12.8222 46.2199 12.5379 46.5089 12.185 46.5089C11.8321 46.5089 11.5478 46.2199 11.5478 45.8611V41.5258C4.4113 37.6888 0 30.254 0 22.0419C0 16.0023 2.36249 10.3614 6.63655 6.16559C10.9204 1.96981 16.5473 -0.212841 22.5074 0.016382C33.6533 0.434964 42.8093 9.64379 43.3386 20.9654C43.3484 21.1947 43.3582 21.6432 43.3582 21.6432C43.3582 21.6731 43.3582 21.703 43.3582 21.7328C43.417 22.0418 43.9954 23.0284 44.466 23.8158C45.7109 25.9286 47.25 28.5598 46.9657 30.3936C46.75 31.7191 45.1816 32.2572 43.5935 32.6957C42.2701 33.0645 41.3388 34.2903 41.3388 35.6856V40.868C41.3388 43.4393 39.2802 45.5223 36.7609 45.5223H32.0065V57.3821C32.0261 57.711 31.732 58 31.3791 58Z" fill="#41B198"/>
<path d="M31.3787 45.4923H24.3598C24.0069 45.4923 23.7227 45.2034 23.7227 44.8446C23.7227 44.4858 24.0069 44.1968 24.3598 44.1968H31.3787C31.7316 44.1968 32.0159 44.4858 32.0159 44.8446C32.0159 45.2034 31.7316 45.4923 31.3787 45.4923Z" fill="#41B198"/>
<path d="M14.8418 20.2378C14.6752 20.2378 14.5085 20.178 14.3909 20.0485L8.14647 13.5804C7.90139 13.3213 7.90139 12.9126 8.15626 12.6635L14.4987 6.33493C14.6164 6.21533 14.783 6.16544 14.9497 6.14551C15.1163 6.14551 15.283 6.21533 15.4006 6.33493L21.6451 12.803C21.8901 13.0621 21.8901 13.4707 21.6353 13.7198L19.9197 15.4341C19.8021 15.5537 19.6355 15.6134 19.4688 15.6234C19.3022 15.6234 19.1355 15.5537 19.0179 15.4341L18.2435 14.6368C17.9788 14.3577 17.6161 14.1983 17.2338 14.1983C16.8514 14.2083 16.4887 14.3477 16.2142 14.6168C15.6457 15.1849 15.6359 16.1118 16.1946 16.6799L16.9691 17.4771C17.0867 17.5967 17.1553 17.7662 17.1553 17.9356C17.1553 18.1051 17.0867 18.2745 16.9691 18.3941L15.3026 20.0585C15.1653 20.1781 15.0085 20.2378 14.8418 20.2378ZM9.50907 13.1318L14.8614 18.6731L15.6163 17.9157L15.2928 17.5768C14.2439 16.4904 14.2635 14.7464 15.332 13.68C15.8515 13.1618 16.5279 12.8927 17.2534 12.8927C17.9788 12.9026 18.6552 13.1916 19.1649 13.7198L19.4884 14.0588L20.2923 13.2614L14.9399 7.72025L9.50907 13.1318Z" fill="#41B198"/>
<path d="M24.6545 24.0948H15.7436C15.3907 24.0948 15.1064 23.8057 15.1064 23.447C15.1064 23.0882 15.3907 22.7793 15.7436 22.7793H24.6545C25.0074 22.7793 25.2917 23.0682 25.2917 23.427V23.447C25.2917 23.8057 25.0074 24.0948 24.6545 24.0948Z" fill="#41B198"/>
<path d="M33.5656 33.1345H24.6548C24.3019 33.1345 24.0176 32.8454 24.0176 32.4866V30.1844C24.0176 29.8256 24.3019 29.5365 24.6548 29.5365H25.7429C26.5369 29.5365 27.1839 28.8788 27.1839 28.0715C27.1839 27.2643 26.5369 26.6065 25.7429 26.6065H24.6548C24.3019 26.6065 24.0176 26.3175 24.0176 25.9587V23.4174C24.0176 23.0586 24.3019 22.7696 24.6548 22.7696H26.4095V22.321C26.4095 20.8061 27.625 19.5703 29.1249 19.5703C30.6247 19.5703 31.8403 20.8061 31.8403 22.321V22.7696H33.5754C33.9283 22.7696 34.2126 23.0586 34.2126 23.4174V32.4767C34.2028 32.8454 33.9185 33.1345 33.5656 33.1345ZM25.2919 31.8388H32.9284V24.0751H31.1933C30.8404 24.0751 30.5561 23.786 30.5561 23.4272V22.331C30.5561 21.5237 29.9091 20.8759 29.1151 20.8759C28.321 20.8759 27.6741 21.5337 27.6741 22.331V23.4272C27.6741 23.786 27.3898 24.0751 27.0369 24.0751H25.2821V25.3109H25.7331C27.2329 25.3109 28.4485 26.5467 28.4485 28.0715C28.4485 29.5964 27.2329 30.8322 25.7331 30.8322H25.2821V31.8388H25.2919Z" fill="#41B198"/>
<path d="M33.5651 24.0752H31.1928C30.8399 24.0752 30.5556 23.7862 30.5556 23.4274V22.3311C30.5556 21.5239 29.9086 20.8761 29.1145 20.8761C28.3205 20.8761 27.6735 21.5338 27.6735 22.3311V23.4274C27.6735 23.7862 27.3892 24.0752 27.0363 24.0752H24.6444C24.2915 24.0752 24.0072 23.7862 24.0072 23.4274V21.7032H23.5367C22.0369 21.7032 20.8213 20.4674 20.8213 18.9426C20.8213 17.4177 22.0369 16.182 23.5367 16.182H24.0072V14.3881C24.0072 14.0293 24.2915 13.7402 24.6444 13.7402H33.5553C33.9082 13.7402 34.1924 14.0293 34.1924 14.3881V23.4274C34.2022 23.7862 33.918 24.0752 33.5651 24.0752ZM31.83 22.7797H32.9181V15.0359H25.2816V16.8297C25.2816 17.1885 24.9973 17.4776 24.6444 17.4776H23.5367C22.7427 17.4776 22.0957 18.1353 22.0957 18.9426C22.0957 19.7498 22.7427 20.4077 23.5367 20.4077H24.6444C24.9973 20.4077 25.2816 20.6968 25.2816 21.0555V22.7797H26.3991V22.3311C26.3991 20.8163 27.6147 19.5804 29.1145 19.5804C30.6144 19.5804 31.83 20.8163 31.83 22.3311V22.7797Z" fill="#41B198"/>
<path d="M24.6545 33.1343H15.7436C15.3907 33.1343 15.1064 32.8453 15.1064 32.4865V23.447C15.1064 23.0882 15.3907 22.7993 15.7436 22.7993H24.6545C25.0074 22.7993 25.2917 23.0882 25.2917 23.447V25.3107H25.7426C27.2424 25.3107 28.458 26.5465 28.458 28.0714C28.458 29.5962 27.2424 30.832 25.7426 30.832H25.2917V32.4865C25.2917 32.8453 25.0074 33.1343 24.6545 33.1343ZM16.3808 31.8386H24.0173V30.1842C24.0173 29.8254 24.3016 29.5364 24.6545 29.5364H25.7426C26.5366 29.5364 27.1836 28.8786 27.1836 28.0714C27.1836 27.2641 26.5366 26.6064 25.7426 26.6064H24.6545C24.3016 26.6064 24.0173 26.3173 24.0173 25.9585V24.0949H16.3808V31.8386Z" fill="#41B198"/>
<path d="M24.6545 24.0948H15.7436C15.3907 24.0948 15.1064 23.8057 15.1064 23.447C15.1064 23.0882 15.3907 22.7793 15.7436 22.7793H24.6545C25.0074 22.7793 25.2917 23.0682 25.2917 23.427V23.447C25.2917 23.8057 25.0074 24.0948 24.6545 24.0948Z" fill="#41B198"/>
</svg>
