<svg width="54" height="58" viewBox="0 0 54 58" fill="none" xmlns="http://www.w3.org/2000/svg">
<path d="M24.2411 58C22.3918 58 20.8823 56.4954 20.8823 54.6521V26.3447C20.8823 25.986 21.1822 25.687 21.5421 25.687C21.9019 25.687 22.2018 25.986 22.2018 26.3447V54.6521C22.2018 55.7681 23.1115 56.6748 24.2311 56.6748C25.3507 56.6748 26.2603 55.7681 26.2603 54.6521V39.3675C26.2603 39.0088 26.5602 38.7098 26.9201 38.7098C27.2799 38.7098 27.5798 39.0088 27.5798 39.3675V54.6521C27.5898 56.5054 26.0904 58 24.2411 58Z" fill="#41B198"/>
<path d="M24.2411 58C22.3918 58 20.8823 56.4954 20.8823 54.6521V26.3447C20.8823 25.986 21.1822 25.687 21.5421 25.687C21.9019 25.687 22.2018 25.986 22.2018 26.3447V54.6521C22.2018 55.7681 23.1115 56.6748 24.2311 56.6748C25.3507 56.6748 26.2603 55.7681 26.2603 54.6521V39.3675C26.2603 39.0088 26.5602 38.7098 26.9201 38.7098C27.2799 38.7098 27.5798 39.0088 27.5798 39.3675V54.6521C27.5898 56.5054 26.0904 58 24.2411 58Z" fill="#41B198"/>
<path d="M29.6092 58C27.7599 58 26.2505 56.4954 26.2505 54.6521V39.3675C26.2505 39.0088 26.5504 38.7098 26.9102 38.7098C27.2701 38.7098 27.5699 39.0088 27.5699 39.3675V54.6521C27.5699 55.7681 28.4796 56.6748 29.5992 56.6748C30.7188 56.6748 31.6285 55.7681 31.6285 54.6521V26.3447C31.6285 25.986 31.9284 25.687 32.2882 25.687C32.6481 25.687 32.948 25.986 32.948 26.3447V54.6521C32.968 56.5054 31.4685 58 29.6092 58Z" fill="#41B198"/>
<path d="M21.5217 40.0252C21.5117 40.0252 21.5118 40.0252 21.5018 40.0252C18.5629 39.9356 16.2637 37.5741 16.2637 34.6447V26.554C16.2637 20.7052 21.0419 15.9424 26.9098 15.9424C32.7776 15.9424 37.5559 20.7052 37.5559 26.554V34.6447C37.5559 37.5741 35.2567 39.9356 32.3177 40.0252C31.9579 40.0452 31.648 39.7462 31.638 39.3875C31.628 39.0288 31.9079 38.7199 32.2778 38.7099C34.497 38.6402 36.2363 36.8567 36.2363 34.6447V26.554C36.2363 21.4226 32.0479 17.2577 26.9098 17.2577C21.7717 17.2577 17.5832 21.4325 17.5832 26.554V34.6447C17.5832 36.8567 19.3226 38.6502 21.5418 38.7099C21.9016 38.7199 22.1915 39.0288 22.1815 39.3875C22.1715 39.7462 21.8816 40.0252 21.5217 40.0252Z" fill="#41B198"/>
<path d="M27.2 14.6072H26.6302C24.0512 14.6072 21.9619 12.5147 21.9619 9.95396V2.70019C21.9619 1.2056 23.1815 0 24.6709 0H29.1493C30.6487 0 31.8583 1.21556 31.8583 2.70019V9.95396C31.8683 12.5147 29.769 14.6072 27.2 14.6072ZM24.6709 1.30533C23.9012 1.30533 23.2814 1.92311 23.2814 2.69033V9.94398C23.2814 11.7873 24.7809 13.2819 26.6302 13.2819H27.2C29.0493 13.2819 30.5488 11.7873 30.5488 9.94398V2.69033C30.5488 1.92311 29.929 1.30533 29.1593 1.30533H24.6709Z" fill="#41B198"/>
<path d="M31.2085 6.91492H22.6217C22.2618 6.91492 21.9619 6.61596 21.9619 6.25726C21.9619 5.89856 22.2618 5.59961 22.6217 5.59961H31.2085C31.5684 5.59961 31.8683 5.89856 31.8683 6.25726C31.8683 6.61596 31.5684 6.91492 31.2085 6.91492Z" fill="#41B198"/>
<path d="M26.9105 4.94225C26.5505 4.94225 26.2505 4.64342 26.2505 4.28471V2.56097C26.2505 2.20227 26.5505 1.90332 26.9105 1.90332C27.2705 1.90332 27.5704 2.20227 27.5704 2.56097V4.28471C27.5704 4.65338 27.2805 4.94225 26.9105 4.94225Z" fill="#41B198"/>
<path d="M27.7798 4.0852H26.0504C25.6905 4.0852 25.3906 3.78637 25.3906 3.42767C25.3906 3.06897 25.6905 2.77002 26.0504 2.77002H27.7798C28.1396 2.77002 28.4395 3.06897 28.4395 3.42767C28.4395 3.78637 28.1496 4.0852 27.7798 4.0852Z" fill="#41B198"/>
<path d="M43.034 58.0001C41.4646 58.0001 40.1851 56.7248 40.1851 55.1604V32.1537C40.1851 31.795 40.4849 31.4961 40.8448 31.4961C41.2047 31.4961 41.5045 31.795 41.5045 32.1537V55.1604C41.5045 55.9974 42.1943 56.6849 43.034 56.6849C43.8737 56.6849 44.5634 55.9974 44.5634 55.1604V42.7354C44.5634 42.3767 44.8633 42.0778 45.2232 42.0778C45.583 42.0778 45.8829 42.3767 45.8829 42.7354V55.1604C45.8829 56.7248 44.6034 58.0001 43.034 58.0001Z" fill="#41B198"/>
<path d="M43.034 58.0001C41.4646 58.0001 40.1851 56.7248 40.1851 55.1604V32.1537C40.1851 31.795 40.4849 31.4961 40.8448 31.4961C41.2047 31.4961 41.5045 31.795 41.5045 32.1537V55.1604C41.5045 55.9974 42.1943 56.6849 43.034 56.6849C43.8737 56.6849 44.5634 55.9974 44.5634 55.1604V42.7354C44.5634 42.3767 44.8633 42.0778 45.2232 42.0778C45.583 42.0778 45.8829 42.3767 45.8829 42.7354V55.1604C45.8829 56.7248 44.6034 58.0001 43.034 58.0001Z" fill="#41B198"/>
<path d="M47.4026 58.0001C45.8332 58.0001 44.5537 56.7248 44.5537 55.1604V42.7354C44.5537 42.3767 44.8536 42.0778 45.2134 42.0778C45.5733 42.0778 45.8732 42.3767 45.8732 42.7354V55.1604C45.8732 55.9974 46.5629 56.6849 47.4026 56.6849C48.2423 56.6849 48.9321 55.9974 48.9321 55.1604V32.1537C48.9321 31.795 49.232 31.4961 49.5918 31.4961C49.9517 31.4961 50.2516 31.795 50.2516 32.1537V55.1604C50.2616 56.7248 48.9821 58.0001 47.4026 58.0001Z" fill="#41B198"/>
<path d="M40.8351 43.3927C40.8251 43.3927 40.8251 43.3927 40.8151 43.3927C38.7059 43.333 36.9365 41.8483 36.5267 39.7858C36.4567 39.4271 36.6866 39.0783 37.0465 39.0086C37.4064 38.9388 37.7562 39.168 37.8262 39.5267C38.1161 40.9815 39.3657 42.0376 40.8651 42.0774C41.225 42.0874 41.5148 42.3963 41.5048 42.755C41.4848 43.1038 41.185 43.3927 40.8351 43.3927Z" fill="#41B198"/>
<path d="M49.5917 43.3927C49.2318 43.3927 48.9419 43.1137 48.9319 42.755C48.9219 42.3963 49.2018 42.0874 49.5717 42.0774C51.311 42.0276 52.6706 40.6227 52.6706 38.889V32.3128C52.6706 28.2176 49.3218 24.8796 45.2133 24.8796C43.184 24.8796 41.2848 25.6768 39.8753 27.1215C39.6254 27.3806 39.2055 27.3906 38.9456 27.1315C38.6857 26.8724 38.6757 26.464 38.9356 26.2049C40.605 24.5011 42.8342 23.5645 45.2233 23.5645C50.0615 23.5645 54 27.4903 54 32.3128V38.889C54 41.3401 52.0808 43.313 49.6217 43.3927C49.6117 43.3927 49.6017 43.3927 49.5917 43.3927Z" fill="#41B198"/>
<path d="M45.2134 22.7277C42.9243 22.7277 41.0649 20.8744 41.0649 18.5927V13.0427C41.0649 11.6975 42.1645 10.6016 43.514 10.6016H46.9228C48.2723 10.6016 49.3719 11.6975 49.3719 13.0427V18.5927C49.3619 20.8644 47.5026 22.7277 45.2134 22.7277ZM43.504 11.9167C42.8843 11.9167 42.3745 12.4249 42.3745 13.0427V18.5927C42.3745 20.147 43.644 21.4124 45.2034 21.4124C46.7629 21.4124 48.0324 20.147 48.0324 18.5927V13.0427C48.0324 12.4249 47.5226 11.9167 46.9028 11.9167H43.504Z" fill="#41B198"/>
<path d="M48.7021 16.4706H41.7247C41.3649 16.4706 41.0649 16.1716 41.0649 15.8129C41.0649 15.4542 41.3649 15.1553 41.7247 15.1553H48.7021C49.062 15.1553 49.3619 15.4542 49.3619 15.8129C49.3619 16.1716 49.062 16.4706 48.7021 16.4706Z" fill="#41B198"/>
<path d="M45.2137 14.8764C44.8537 14.8764 44.5537 14.5774 44.5537 14.2187V12.8138C44.5537 12.4551 44.8537 12.1562 45.2137 12.1562C45.5737 12.1562 45.8737 12.4551 45.8737 12.8138V14.2187C45.8737 14.5774 45.5737 14.8764 45.2137 14.8764Z" fill="#41B198"/>
<path d="M45.913 14.1687H44.5035C44.1436 14.1687 43.8438 13.8699 43.8438 13.5112C43.8438 13.1525 44.1436 12.8535 44.5035 12.8535H45.913C46.2729 12.8535 46.5727 13.1525 46.5727 13.5112C46.5727 13.8798 46.2829 14.1687 45.913 14.1687Z" fill="#41B198"/>
<path d="M10.9661 58.0001C9.39669 58.0001 8.11719 56.7248 8.11719 55.1604V42.7354C8.11719 42.3767 8.41705 42.0778 8.77692 42.0778C9.13678 42.0778 9.43671 42.3767 9.43671 42.7354V55.1604C9.43671 55.9974 10.1264 56.6849 10.9661 56.6849C11.8058 56.6849 12.4956 55.9974 12.4956 55.1604V32.1537C12.4956 31.795 12.7954 31.4961 13.1553 31.4961C13.5152 31.4961 13.8151 31.795 13.8151 32.1537V55.1604C13.8151 56.7248 12.5355 58.0001 10.9661 58.0001Z" fill="#41B198"/>
<path d="M10.9661 58.0001C9.39669 58.0001 8.11719 56.7248 8.11719 55.1604V42.7354C8.11719 42.3767 8.41705 42.0778 8.77692 42.0778C9.13678 42.0778 9.43671 42.3767 9.43671 42.7354V55.1604C9.43671 55.9974 10.1264 56.6849 10.9661 56.6849C11.8058 56.6849 12.4956 55.9974 12.4956 55.1604V32.1537C12.4956 31.795 12.7954 31.4961 13.1553 31.4961C13.5152 31.4961 13.8151 31.795 13.8151 32.1537V55.1604C13.8151 56.7248 12.5355 58.0001 10.9661 58.0001Z" fill="#41B198"/>
<path d="M6.59746 58.0001C5.02804 58.0001 3.74854 56.7248 3.74854 55.1604V32.1537C3.74854 31.795 4.0484 31.4961 4.40826 31.4961C4.76813 31.4961 5.06806 31.795 5.06806 32.1537V55.1604C5.06806 55.9974 5.75777 56.6849 6.59746 56.6849C7.43715 56.6849 8.12692 55.9974 8.12692 55.1604V42.7354C8.12692 42.3767 8.42679 42.0778 8.78665 42.0778C9.14652 42.0778 9.44644 42.3767 9.44644 42.7354V55.1604C9.44644 56.7248 8.16688 58.0001 6.59746 58.0001Z" fill="#41B198"/>
<path d="M13.1654 43.3927C12.8055 43.3927 12.5156 43.1137 12.5056 42.755C12.4956 42.3963 12.7855 42.0874 13.1453 42.0774C14.6348 42.0376 15.8844 40.9815 16.1843 39.5267C16.2542 39.168 16.6041 38.9388 16.9639 39.0086C17.3238 39.0783 17.5537 39.4271 17.4838 39.7858C17.0639 41.8483 15.3046 43.333 13.1954 43.3927C13.1854 43.3927 13.1753 43.3927 13.1654 43.3927Z" fill="#41B198"/>
<path d="M4.39834 43.3927C4.38834 43.3927 4.38838 43.3927 4.37839 43.3927C1.92929 43.313 0 41.3401 0 38.889V32.3128C0 27.4903 3.93851 23.5645 8.77673 23.5645C11.1658 23.5645 13.3951 24.5011 15.0644 26.2049C15.3144 26.464 15.3143 26.8824 15.0544 27.1315C14.7945 27.3806 14.3747 27.3806 14.1248 27.1215C12.7053 25.6768 10.816 24.8796 8.78673 24.8796C4.67825 24.8796 1.32947 28.2176 1.32947 32.3128V38.889C1.32947 40.6227 2.689 42.0176 4.42836 42.0774C4.78823 42.0874 5.07813 42.3963 5.06814 42.755C5.04814 43.1037 4.75821 43.3927 4.39834 43.3927Z" fill="#41B198"/>
<path d="M8.78662 22.7277C6.49746 22.7277 4.63818 20.8744 4.63818 18.5927V13.0427C4.63818 11.6975 5.73773 10.6016 7.08723 10.6016H10.496C11.8455 10.6016 12.9451 11.6975 12.9451 13.0427V18.5927C12.9351 20.8644 11.0758 22.7277 8.78662 22.7277ZM7.08723 11.9167C6.46746 11.9167 5.95764 12.4249 5.95764 13.0427V18.5927C5.95764 20.147 7.22719 21.4124 8.78662 21.4124C10.346 21.4124 11.6156 20.147 11.6156 18.5927V13.0427C11.6156 12.4249 11.1058 11.9167 10.486 11.9167H7.08723Z" fill="#41B198"/>
<path d="M12.2753 16.4706H5.29791C4.93805 16.4706 4.63818 16.1716 4.63818 15.8129C4.63818 15.4542 4.93805 15.1553 5.29791 15.1553H12.2753C12.6352 15.1553 12.9351 15.4542 12.9351 15.8129C12.9351 16.1716 12.6452 16.4706 12.2753 16.4706Z" fill="#41B198"/>
<path d="M8.78693 14.8764C8.42693 14.8764 8.12695 14.5774 8.12695 14.2187V12.8138C8.12695 12.4551 8.42693 12.1562 8.78693 12.1562C9.14693 12.1562 9.44696 12.4551 9.44696 12.8138V14.2187C9.44696 14.5774 9.15693 14.8764 8.78693 14.8764Z" fill="#41B198"/>
<path d="M9.49649 14.1687H8.08698C7.72711 14.1687 7.42725 13.8699 7.42725 13.5112C7.42725 13.1525 7.72711 12.8535 8.08698 12.8535H9.49649C9.85636 12.8535 10.1562 13.1525 10.1562 13.5112C10.1562 13.8798 9.85636 14.1687 9.49649 14.1687Z" fill="#41B198"/>
</svg>
