<svg width="51" height="58" viewBox="0 0 51 58" fill="none" xmlns="http://www.w3.org/2000/svg">
<path d="M47.3266 57.8209C45.3013 57.8209 43.6533 56.1666 43.6533 54.1336V23.9477C43.6533 22.5924 44.7454 21.4961 46.0956 21.4961H50.3448C50.7022 21.4961 51 21.7851 51 22.1539V54.1436C51 56.1666 49.3519 57.8209 47.3266 57.8209ZM46.0956 22.8017C45.4701 22.8017 44.9539 23.3099 44.9539 23.9477V54.1336C44.9539 55.4391 46.0162 56.5054 47.3167 56.5054C48.6173 56.5054 49.6796 55.4391 49.6796 54.1336V22.8017H46.0956Z" fill="#41B198"/>
<path d="M45.6787 20.5591C45.5297 20.5591 45.3908 20.5093 45.2617 20.4096C44.9837 20.1804 44.944 19.7719 45.1723 19.4929C46.5225 17.8386 45.9765 13.7625 45.49 10.1649C45.2518 8.38106 45.0234 6.69689 45.0234 5.33159C45.0234 2.39173 47.4061 0 50.3349 0C50.6923 0 50.9901 0.289038 50.9901 0.657767V19.9213C50.9901 20.2801 50.7022 20.5791 50.3349 20.5791C49.9675 20.5791 49.6797 20.29 49.6797 19.9213V1.36529C47.7735 1.67422 46.324 3.33848 46.324 5.34157C46.324 6.61717 46.5424 8.26156 46.7806 10.0055C47.3267 14.0616 47.8827 18.2471 46.1751 20.3399C46.0559 20.4695 45.8772 20.5591 45.6787 20.5591Z" fill="#41B198"/>
<path d="M10.0079 54.7611C9.94831 54.7611 9.87882 54.7512 9.81925 54.7313C9.47177 54.6316 9.28314 54.2628 9.38242 53.914L16.739 29.4584C17.2652 27.7044 18.3077 26.1896 19.7572 25.0735L21.5342 23.7082C22.4079 23.0305 23.0929 22.1337 23.5099 21.1172L24.185 19.4628L27.9179 6.6868C28.3845 5.10226 27.8882 3.42806 26.6869 2.35177L23.5099 13.1645C23.1227 14.4799 22.2987 15.6459 21.1769 16.4332L18.665 18.2071C17.7914 18.825 17.1362 19.7318 16.8284 20.7583L8.38962 48.4628C8.28041 48.8116 7.923 49.0009 7.57552 48.9013C7.22804 48.7916 7.0394 48.4329 7.13868 48.0841L15.5775 20.3796C15.9746 19.0741 16.7986 17.928 17.9106 17.1408L20.4223 15.367C21.3059 14.7491 21.9512 13.8322 22.259 12.7957L25.6941 1.08611C25.7536 0.886802 25.9026 0.727419 26.1012 0.65766C26.2997 0.5879 26.5181 0.617744 26.6869 0.727366L26.9549 0.906801C28.9604 2.26213 29.8539 4.72357 29.1689 7.05553L25.426 19.8615C25.4161 19.8814 25.4161 19.9013 25.4062 19.9212L24.7112 21.6154C24.2049 22.8512 23.3808 23.9373 22.3285 24.7545L20.5514 26.1198C19.3203 27.0665 18.4367 28.3521 17.99 29.847L10.6333 54.3027C10.544 54.5817 10.2859 54.7611 10.0079 54.7611Z" fill="#41B198"/>
<path d="M5.46067 55.1399C4.02112 55.1399 2.84961 53.9639 2.84961 52.5189C2.84961 51.0739 4.02112 49.8979 5.46067 49.8979C6.90023 49.8979 8.07173 51.0739 8.07173 52.5189C8.07173 53.9639 6.90023 55.1399 5.46067 55.1399ZM5.46067 51.2035C4.73593 51.2035 4.15017 51.7914 4.15017 52.5189C4.15017 53.2464 4.73593 53.8345 5.46067 53.8345C6.18541 53.8345 6.77117 53.2464 6.77117 52.5189C6.77117 51.7914 6.18541 51.2035 5.46067 51.2035Z" fill="#41B198"/>
<path d="M5.46039 57.9998C2.45221 57.9998 0 55.5383 0 52.5187C0 49.4991 2.45221 47.0376 5.46039 47.0376C6.37376 47.0376 7.26727 47.2668 8.06151 47.6954C8.37921 47.8648 8.49835 48.2634 8.31965 48.5823C8.15087 48.9012 7.75374 49.0208 7.43604 48.8414C6.83044 48.5126 6.14541 48.3332 5.45045 48.3332C3.15709 48.3332 1.29062 50.2068 1.29062 52.5088C1.29062 54.8109 3.15709 56.6844 5.45045 56.6844C7.21763 56.6844 8.7962 55.5582 9.38195 53.884C9.50108 53.5452 9.86845 53.3659 10.2159 53.4855C10.5535 53.605 10.7321 53.9737 10.613 54.3225C9.85848 56.525 7.78353 57.9998 5.46039 57.9998Z" fill="#41B198"/>
<path d="M33.1293 48.9314C32.8513 48.9314 32.5931 48.7521 32.5038 48.4631L24.9685 23.6985C24.8593 23.3497 25.0578 22.9908 25.4053 22.8812C25.7528 22.7716 26.1102 22.971 26.2194 23.3198L33.7547 48.0844C33.8639 48.4331 33.6654 48.7919 33.3179 48.9015C33.2583 48.9214 33.1988 48.9314 33.1293 48.9314Z" fill="#41B198"/>
<path d="M15.4477 18.0877C15.1698 18.0877 14.9017 17.8984 14.8223 17.6194L11.7347 7.05568C11.0596 4.73369 11.9432 2.26229 13.9486 0.906959L14.2167 0.727524C14.3855 0.607937 14.6039 0.588059 14.8025 0.657818C15.001 0.727578 15.1499 0.88696 15.2095 1.08627L18.6446 12.7959C18.7737 13.2444 18.9722 13.6629 19.2204 14.0516C19.4189 14.3506 19.3296 14.7592 19.0317 14.9585C18.7339 15.1578 18.3269 15.0681 18.1283 14.7691C17.8106 14.2708 17.5624 13.7327 17.3937 13.1646L14.2167 2.35193C13.0154 3.42822 12.519 5.10242 12.9856 6.68696L16.0732 17.2506C16.1725 17.5994 15.9739 17.9581 15.6264 18.0678C15.5669 18.0777 15.5073 18.0877 15.4477 18.0877Z" fill="#41B198"/>
<path d="M30.8959 54.7613C30.6179 54.7613 30.3597 54.582 30.2704 54.293L22.9138 29.8374C22.6557 28.9903 22.2585 28.1929 21.7224 27.4854C21.504 27.1964 21.5636 26.7879 21.8415 26.5686C22.1295 26.3494 22.5365 26.4092 22.7549 26.6882C23.3903 27.5253 23.857 28.4521 24.1647 29.4487L31.5213 53.9043C31.6206 54.2531 31.432 54.6119 31.0845 54.7216C31.015 54.7515 30.9554 54.7613 30.8959 54.7613Z" fill="#41B198"/>
<path d="M35.4431 55.1399C34.0035 55.1399 32.832 53.9639 32.832 52.5189C32.832 51.0739 34.0035 49.8979 35.4431 49.8979C36.8826 49.8979 38.0542 51.0739 38.0542 52.5189C38.0542 53.9639 36.8826 55.1399 35.4431 55.1399ZM35.4431 51.2035C34.7184 51.2035 34.1326 51.7914 34.1326 52.5189C34.1326 53.2464 34.7184 53.8345 35.4431 53.8345C36.1678 53.8345 36.7536 53.2464 36.7536 52.5189C36.7536 51.7914 36.1678 51.2035 35.4431 51.2035Z" fill="#41B198"/>
<path d="M35.4427 58.0003C33.1195 58.0003 31.0446 56.5254 30.2801 54.323C30.161 53.9842 30.3397 53.6055 30.6772 53.486C31.0148 53.3664 31.392 53.5456 31.5112 53.8845C32.0969 55.5587 33.6755 56.6849 35.4427 56.6849C37.736 56.6849 39.6025 54.8114 39.6025 52.5093C39.6025 50.2073 37.736 48.3337 35.4427 48.3337C34.7477 48.3337 34.0627 48.5031 33.4571 48.8419C33.1394 49.0113 32.7422 48.9017 32.5735 48.5828C32.4047 48.2639 32.5139 47.8653 32.8316 47.6959C33.6258 47.2673 34.5293 47.0381 35.4327 47.0381C38.4409 47.0381 40.8931 49.4996 40.8931 52.5192C40.903 55.5388 38.4508 58.0003 35.4427 58.0003Z" fill="#41B198"/>
<path d="M20.4618 22.4226C19.479 22.4226 18.6748 21.6153 18.6748 20.6287C18.6748 19.6421 19.479 18.835 20.4618 18.835C21.4447 18.835 22.2489 19.6421 22.2489 20.6287C22.2489 21.6153 21.4447 22.4226 20.4618 22.4226ZM20.4618 20.1404C20.1938 20.1404 19.9754 20.3596 19.9754 20.6287C19.9754 20.8978 20.1938 21.1171 20.4618 21.1171C20.7299 21.1171 20.9483 20.8978 20.9483 20.6287C20.9483 20.3596 20.7299 20.1404 20.4618 20.1404Z" fill="#41B198"/>
</svg>
