<svg width="51" height="58" viewBox="0 0 51 58" fill="none" xmlns="http://www.w3.org/2000/svg">
<path d="M2.32445 15.753C1.95531 15.753 1.66602 15.454 1.66602 15.0953V7.5128C1.66602 5.1912 3.0328 3.06894 5.13786 2.09248C5.15782 2.08252 5.16778 2.0825 5.18774 2.07253L5.73644 1.8733C6.07564 1.74377 6.45479 1.92302 6.58449 2.26179C6.71419 2.60056 6.53459 2.97929 6.19539 3.10882L5.66659 3.29808C4.0404 4.0653 2.98288 5.70933 2.98288 7.5128V15.0953C2.98288 15.454 2.69358 15.753 2.32445 15.753Z" fill="#41B198"/>
<path d="M8.45958 4.40398C7.50182 4.40398 5.24707 3.65672 5.24707 2.20199C5.24707 0.747256 7.50182 0 8.45958 0C9.67673 0 10.6644 0.98639 10.6644 2.20199C10.6644 3.41759 9.67673 4.40398 8.45958 4.40398ZM8.45958 1.31519C7.71133 1.31519 6.59392 1.93296 6.56399 2.20199C6.59392 2.47102 7.70135 3.08879 8.45958 3.08879C8.94843 3.08879 9.34745 2.69022 9.34745 2.20199C9.34745 1.71376 8.94843 1.31519 8.45958 1.31519Z" fill="#41B198"/>
<path d="M26.398 15.753C26.0289 15.753 25.7395 15.454 25.7395 15.0953V7.5128C25.7395 5.71929 24.692 4.0653 23.0558 3.29808L22.5271 3.10882C22.1879 2.97929 22.0083 2.60056 22.138 2.26179C22.2677 1.92302 22.6468 1.74377 22.986 1.8733L23.5347 2.07253C23.5547 2.0825 23.5647 2.08252 23.5846 2.09248C25.6897 3.06894 27.0565 5.1912 27.0565 7.5128V15.0953C27.0664 15.454 26.7672 15.753 26.398 15.753Z" fill="#41B198"/>
<path d="M20.2722 4.40398C19.0551 4.40398 18.0674 3.41759 18.0674 2.20199C18.0674 0.98639 19.0551 0 20.2722 0C21.23 0 23.4847 0.747256 23.4847 2.20199C23.4847 3.65672 21.23 4.40398 20.2722 4.40398ZM20.2722 1.31519C19.7834 1.31519 19.3843 1.71376 19.3843 2.20199C19.3843 2.69022 19.7834 3.08879 20.2722 3.08879C21.0205 3.08879 22.1379 2.47102 22.1678 2.20199C22.1379 1.93296 21.0205 1.31519 20.2722 1.31519Z" fill="#41B198"/>
<path d="M14.3259 41.9082C12.8294 41.9082 11.6123 40.6926 11.6123 39.198V32.0439C5.60636 31.0475 0.877455 26.2548 0.0294408 20.2067C-0.200022 18.5826 0.937283 17.078 2.5535 16.8489C4.17969 16.6197 5.68616 17.7556 5.91562 19.3798C6.47431 23.3255 9.90627 26.2948 13.8969 26.2948H14.745C18.7456 26.2948 22.1776 23.3155 22.7263 19.3698C22.836 18.5826 23.245 17.8852 23.8736 17.4069C24.5121 16.9286 25.2903 16.7293 26.0784 16.8389C26.8666 16.9485 27.5649 17.3571 28.0438 17.9948C28.5227 18.6324 28.7222 19.4096 28.6125 20.1967C27.7644 26.2548 23.0455 31.0475 17.0296 32.0538V39.208C17.0396 40.7026 15.8224 41.9082 14.3259 41.9082ZM2.97256 18.1542C2.89275 18.1542 2.82287 18.1642 2.74306 18.1742C1.84516 18.3037 1.21666 19.1407 1.33638 20.0374C2.13451 25.687 6.66388 30.1209 12.3506 30.8283C12.6798 30.8682 12.9292 31.1472 12.9292 31.486V39.218C12.9292 39.9852 13.5478 40.603 14.316 40.603C15.0842 40.603 15.7027 39.9852 15.7027 39.218V31.486C15.7027 31.1571 15.9521 30.8682 16.2814 30.8283C21.978 30.1209 26.5074 25.677 27.3055 20.0175C27.3654 19.579 27.2556 19.1506 26.9863 18.7919C26.7169 18.4432 26.3378 18.214 25.8988 18.1542C25.4599 18.0944 25.0308 18.204 24.6817 18.473C24.3325 18.742 24.1031 19.1207 24.0432 19.5592C23.4047 24.1525 19.4041 27.6199 14.745 27.6199H13.8969C9.24781 27.6199 5.25716 24.1625 4.60868 19.5691C4.49894 18.7521 3.79064 18.1542 2.97256 18.1542Z" fill="#41B198"/>
<path d="M22.6958 58.0003C17.7175 58.0003 13.667 53.9549 13.667 48.9829V44.0308C13.667 43.6622 13.9663 43.3732 14.3254 43.3732C14.6846 43.3732 14.9839 43.6721 14.9839 44.0308V48.9829C14.9839 53.2275 18.4458 56.6851 22.6958 56.6851C26.9459 56.6851 30.4078 53.2275 30.4078 48.9829V40.9321C30.4078 40.5634 30.7071 40.2744 31.0662 40.2744C31.4354 40.2744 31.7247 40.5734 31.7247 40.9321V48.9829C31.7347 53.9549 27.6842 58.0003 22.6958 58.0003Z" fill="#41B198"/>
<path d="M31.0666 46.9101C30.6975 46.9101 30.4082 46.6112 30.4082 46.2525V36.8863C30.4082 32.3428 34.1095 28.6562 38.6489 28.6562C43.1882 28.6562 46.8896 32.3528 46.8896 36.8863V44.6483C46.8896 45.017 46.5903 45.3059 46.2311 45.3059C45.862 45.3059 45.5726 45.007 45.5726 44.6483V36.8863C45.5726 33.0801 42.4699 29.9714 38.6489 29.9714C34.8378 29.9714 31.7251 33.0702 31.7251 36.8863V46.2525C31.735 46.6112 31.4358 46.9101 31.0666 46.9101Z" fill="#41B198"/>
<path d="M46.2314 53.5359C45.134 53.5359 44.2461 52.6492 44.2461 51.5531C44.2461 50.4571 45.134 49.5703 46.2314 49.5703C47.3289 49.5703 48.2168 50.4571 48.2168 51.5531C48.2168 52.6492 47.3289 53.5359 46.2314 53.5359ZM46.2314 50.8955C45.8623 50.8955 45.5729 51.1944 45.5729 51.5531C45.5729 51.9218 45.8723 52.2107 46.2314 52.2107C46.6006 52.2107 46.8899 51.9118 46.8899 51.5531C46.8998 51.1944 46.6006 50.8955 46.2314 50.8955Z" fill="#41B198"/>
<path d="M46.2308 56.316C43.5969 56.316 41.4619 54.1838 41.4619 51.5533C41.4619 48.9228 43.5969 46.7905 46.2308 46.7905C48.8646 46.7905 50.9996 48.9228 50.9996 51.5533C50.9996 54.1838 48.8646 56.316 46.2308 56.316ZM46.2308 48.1157C44.3352 48.1157 42.7888 49.6602 42.7888 51.5533C42.7888 53.4465 44.3352 54.9908 46.2308 54.9908C48.1263 54.9908 49.6727 53.4465 49.6727 51.5533C49.6827 49.6602 48.1363 48.1157 46.2308 48.1157Z" fill="#41B198"/>
</svg>
