<svg width="21" height="22" viewBox="0 0 21 22" fill="none" xmlns="http://www.w3.org/2000/svg">
<path d="M19.4256 5.25881C16.2892 0.407195 9.86631 -1.03032 4.89908 1.97948C0.0518951 4.98927 -1.50881 11.5479 1.6276 16.3846L1.88272 16.7739L0.832246 20.6971L4.76402 19.6489L5.15419 19.9035C6.84996 20.8169 8.69579 21.341 10.5266 21.341C12.4925 21.341 14.4584 20.8169 16.1541 19.7687C21.0013 16.6242 22.442 10.2003 19.4256 5.22886V5.25881ZM16.6794 15.3514C16.1541 16.13 15.4938 16.6541 14.5784 16.7889C14.0532 16.7889 13.3929 17.0434 10.7817 16.0102C8.56073 14.962 6.7149 13.255 5.40931 11.2934C4.62896 10.38 4.22377 9.197 4.10372 8.01404C4.10372 6.96586 4.4939 6.05243 5.15419 5.39357C5.40931 5.13901 5.67943 5.00425 5.93454 5.00425H6.59484C6.84996 5.00425 7.12008 5.00425 7.25514 5.52834C7.51025 6.1872 8.17055 7.75948 8.17055 7.89425C8.30561 8.02902 8.24558 9.03228 7.64531 9.6013C7.31517 9.97565 7.25514 9.99063 7.3902 10.2602C7.91544 11.0388 8.57573 11.8324 9.22102 12.4913C10.0014 13.1502 10.7967 13.6743 11.7121 14.0636C11.9673 14.1983 12.2374 14.1983 12.3724 13.9288C12.5075 13.6743 13.1528 13.0154 13.4229 12.7459C13.678 12.4913 13.8131 12.4913 14.0832 12.6111L16.1842 13.6593C16.4393 13.794 16.7094 13.9138 16.8445 14.0486C16.9795 14.4379 16.9795 14.962 16.7094 15.3514H16.6794Z" fill="#41B198"/>
</svg>
