<svg width="21" height="15" viewBox="0 0 21 15" fill="none" xmlns="http://www.w3.org/2000/svg">
<path d="M10.5676 0.253906H10.6844C11.7634 0.257831 17.2303 0.297081 18.7043 0.692194C19.1499 0.81278 19.556 1.04782 19.8819 1.37384C20.2078 1.69985 20.4422 2.10542 20.5616 2.55001C20.6942 3.04717 20.7874 3.70526 20.8504 4.38427L20.8635 4.52034L20.8924 4.8605L20.9029 4.99657C20.9882 6.19237 20.9987 7.31229 21 7.55695V7.65508C20.9987 7.90889 20.9869 9.10469 20.8924 10.3502L20.8819 10.4876L20.8701 10.6237C20.8044 11.372 20.7073 12.1151 20.5616 12.662C20.4422 13.1066 20.2078 13.5122 19.8819 13.8382C19.556 14.1642 19.1499 14.3992 18.7043 14.5198C17.1817 14.928 11.3945 14.9568 10.5925 14.9581H10.4061C10.0006 14.9581 8.32308 14.9503 6.56422 14.8901L6.34108 14.8822L6.22689 14.877L6.00244 14.8678L5.77799 14.8587C4.32102 14.7946 2.93362 14.6912 2.29439 14.5185C1.84894 14.3981 1.44299 14.1632 1.11707 13.8374C0.791163 13.5117 0.556697 13.1064 0.43709 12.662C0.291393 12.1164 0.194262 11.372 0.128633 10.6237L0.118132 10.4863L0.107632 10.3502C0.0424796 9.46372 0.00658301 8.57532 0 7.68647L0 7.52555C0.00262516 7.24426 0.0131258 6.27218 0.0840053 5.19936L0.0931933 5.0646L0.0971311 4.99657L0.107632 4.8605L0.136509 4.52034L0.149634 4.38427C0.212638 3.70526 0.305832 3.04586 0.438402 2.55001C0.557809 2.10542 0.792185 1.69985 1.11811 1.37384C1.44404 1.04782 1.85009 0.81278 2.29571 0.692194C2.93493 0.522112 4.32233 0.417446 5.7793 0.35203L6.00244 0.342872L6.2282 0.335022L6.34108 0.331097L6.56554 0.321939C7.81473 0.281909 9.06444 0.259665 10.3143 0.255215L10.5676 0.253906ZM8.40053 4.45361V10.7571L13.8569 7.60667L8.40053 4.45361Z" fill="#3B409A"/>
</svg>
